<svg width="18" height="16" viewBox="0 0 18 16" fill="none" xmlns="http://www.w3.org/2000/svg">
<path d="M12.996 0.00392079C11.7748 0.00336867 10.596 0.451815 9.684 1.26392C9.49589 1.43217 9.25237 1.52519 9 1.52519C8.74763 1.52519 8.50411 1.43217 8.316 1.26392C7.59626 0.623287 6.70659 0.2045 5.75423 0.0580411C4.80187 -0.0884175 3.82748 0.0437042 2.94851 0.43848C2.06954 0.833255 1.32351 1.47383 0.800355 2.283C0.277199 3.09216 -0.000754236 4.03537 1.53715e-06 4.99892C1.53715e-06 9.27392 6.57 14.2779 8.478 15.6459C8.63043 15.7544 8.81289 15.8128 9 15.8128C9.18711 15.8128 9.36958 15.7544 9.522 15.6459C11.43 14.2779 18 9.27392 18 4.99892C17.9976 3.67334 17.4694 2.40286 16.5312 1.46637C15.593 0.529889 14.3216 0.00391865 12.996 0.00392079ZM9 13.7919C5.337 11.0919 1.8 7.41092 1.8 4.99892C1.80244 4.38388 1.98185 3.78255 2.31681 3.26672C2.65176 2.75089 3.12811 2.34236 3.68896 2.08993C4.24981 1.8375 4.87147 1.75183 5.47969 1.84315C6.08792 1.93447 6.65701 2.19892 7.119 2.60492C7.63584 3.06853 8.30569 3.32494 9 3.32494C9.69431 3.32494 10.3642 3.06853 10.881 2.60492C11.343 2.19892 11.9121 1.93447 12.5203 1.84315C13.1285 1.75183 13.7502 1.8375 14.311 2.08993C14.8719 2.34236 15.3482 2.75089 15.6832 3.26672C16.0181 3.78255 16.1976 4.38388 16.2 4.99892C16.2 7.41092 12.663 11.0739 9 13.7919Z" fill="#212529"/>
</svg>
