<svg width="18" height="16" viewBox="0 0 18 16" fill="none" xmlns="http://www.w3.org/2000/svg">
<path d="M12.996 0.0039208C11.7748 0.00336867 10.596 0.451815 9.684 1.26392C9.49589 1.43217 9.25237 1.52519 9 1.52519C8.74763 1.52519 8.50411 1.43217 8.316 1.26392C7.59626 0.623287 6.70659 0.2045 5.75423 0.0580411C4.80187 -0.0884175 3.82748 0.0437042 2.94851 0.43848C2.06954 0.833255 1.32351 1.47383 0.800355 2.283C0.277199 3.09216 -0.000754236 4.03537 1.53715e-06 4.99892C1.53715e-06 9.27392 6.57 14.2779 8.478 15.6459C8.63043 15.7544 8.81289 15.8128 9 15.8128C9.18711 15.8128 9.36957 15.7544 9.522 15.6459C11.43 14.2779 18 9.27392 18 4.99892C17.9976 3.67334 17.4694 2.40286 16.5312 1.46637C15.593 0.529889 14.3216 0.00391865 12.996 0.0039208Z" fill="url(#paint0_linear_220_819)"/>
<defs>
<linearGradient id="paint0_linear_220_819" x1="20.5" y1="16" x2="-4.5" y2="-2" gradientUnits="userSpaceOnUse">
<stop stop-color="#49302C"/>
<stop offset="1" stop-color="#917166"/>
</linearGradient>
</defs>
</svg>
