<svg width="19" height="19" viewBox="0 0 19 19" fill="none" xmlns="http://www.w3.org/2000/svg">
<path d="M8.64336 17.3193C8.6454 17.6501 8.55013 17.974 8.36961 18.2501C8.18909 18.5261 7.93145 18.7418 7.62937 18.8698C7.32728 18.9979 6.99435 19.0324 6.67278 18.9692C6.35122 18.9059 6.0555 18.7477 5.82311 18.5145C5.59073 18.2813 5.43215 17.9837 5.36748 17.6594C5.30281 17.3351 5.33496 16.9988 5.45985 16.6929C5.58475 16.3871 5.79676 16.1257 6.06902 15.9417C6.34127 15.7577 6.66151 15.6594 6.98912 15.6594C7.42607 15.6594 7.84527 15.834 8.1552 16.1449C8.46514 16.4559 8.64062 16.8781 8.64336 17.3193ZM15.4567 15.6594C15.1295 15.6594 14.8097 15.7574 14.5377 15.9409C14.2656 16.1244 14.0536 16.3853 13.9284 16.6905C13.8032 16.9957 13.7704 17.3316 13.8343 17.6556C13.8981 17.9796 14.0557 18.2772 14.287 18.5108C14.5183 18.7444 14.8131 18.9035 15.134 18.9679C15.4549 19.0324 15.7875 18.9993 16.0898 18.8729C16.392 18.7464 16.6504 18.5324 16.8322 18.2577C17.0139 17.983 17.1109 17.6601 17.1109 17.3297C17.1109 16.8867 16.9367 16.4619 16.6264 16.1486C16.3162 15.8354 15.8954 15.6594 15.4567 15.6594ZM18.9616 5.48108L17.2867 12.2562C17.1165 12.9313 16.7283 13.5299 16.1834 13.9572C15.6385 14.3845 14.968 14.6161 14.2781 14.6155H8.16776C7.47645 14.6155 6.80493 14.3824 6.25985 13.953C5.71476 13.5237 5.32735 12.9228 5.15913 12.2458L2.67779 2.08831H1.03389C0.759688 2.08831 0.496714 1.97832 0.302821 1.78255C0.108928 1.58677 0 1.32124 0 1.04437C0 0.767507 0.108928 0.501979 0.302821 0.306204C0.496714 0.110428 0.759688 0.000443056 1.03389 0.000443056H3.48422C3.7204 -0.0065047 3.95181 0.0684375 4.13993 0.212793C4.32804 0.357149 4.46151 0.562208 4.51812 0.793831L5.32455 4.17617H17.8347H17.9277C18.024 4.17617 18.1213 4.16075 18.2172 4.17617C18.3513 4.21006 18.4773 4.27076 18.5877 4.35466C18.6981 4.43856 18.7908 4.54397 18.8602 4.66465C18.9296 4.78533 18.9743 4.91884 18.9918 5.05728C19.0092 5.19571 18.9989 5.33627 18.9616 5.47064V5.48108ZM16.6354 6.26403H5.8415L7.1959 11.7342C7.24995 11.9554 7.37419 12.1527 7.54967 12.296C7.72514 12.4392 7.94222 12.5206 8.16776 12.5276H14.2471C14.4832 12.5346 14.7146 12.4596 14.9028 12.3153C15.0909 12.1709 15.2243 11.9659 15.281 11.7342L16.6354 6.26403Z" fill="white"/>
</svg>
