<svg width="20" height="18" viewBox="0 0 20 18" fill="none" xmlns="http://www.w3.org/2000/svg">
<path d="M14.44 0.00446312C13.0831 0.00383463 11.7734 0.514311 10.76 1.43875C10.551 1.63027 10.2804 1.73615 10 1.73615C9.71959 1.73615 9.44901 1.63027 9.24 1.43875C8.44029 0.7095 7.45177 0.232786 6.39359 0.0660694C5.33541 -0.100648 4.25276 0.0497493 3.27612 0.499131C2.29949 0.948512 1.47057 1.6777 0.889283 2.59878C0.307999 3.51987 -0.00083804 4.59354 1.70795e-06 5.69038C1.70795e-06 10.5567 7.3 16.2529 9.42 17.8101C9.58936 17.9336 9.7921 18 10 18C10.2079 18 10.4106 17.9336 10.58 17.8101C12.7 16.2529 20 10.5567 20 5.69038C19.9974 4.18144 19.4104 2.73523 18.368 1.66921C17.3256 0.603183 15.9129 0.00446068 14.44 0.00446312ZM10 15.6996C5.93 12.6262 2 8.43601 2 5.69038C2.00271 4.99027 2.20206 4.30575 2.57423 3.71857C2.94641 3.13139 3.47568 2.66636 4.09885 2.37901C4.72202 2.09167 5.41274 1.99415 6.08855 2.0981C6.76435 2.20205 7.39667 2.50308 7.91 2.96524C8.48427 3.49297 9.22855 3.78485 10 3.78485C10.7715 3.78485 11.5157 3.49297 12.09 2.96524C12.6033 2.50308 13.2356 2.20205 13.9115 2.0981C14.5873 1.99415 15.278 2.09167 15.9012 2.37901C16.5243 2.66636 17.0536 3.13139 17.4258 3.71857C17.7979 4.30575 17.9973 4.99027 18 5.69038C18 8.43601 14.07 12.6057 10 15.6996Z" fill="white"/>
</svg>
