<svg width="16" height="21" viewBox="0 0 16 21" fill="none" xmlns="http://www.w3.org/2000/svg">
<path d="M3.00541 15.5463L3.44593 19.1223C3.50767 19.6235 3.93342 20 4.43843 20H11.573C12.0812 20 12.5086 19.6188 12.5665 19.1139L12.9757 15.5463M3.00541 15.5463H12.9757M3.00541 15.5463V15.5463C2.66058 15.5463 2.37075 15.2873 2.33204 14.9447L1.59982 8.46344C1.56245 8.1327 1.82121 7.84306 2.15405 7.84306V7.84306M12.9757 15.5463V15.5463C13.3538 15.5463 13.6725 15.2643 13.7185 14.8891L14.5031 8.50028C14.546 8.15105 14.2735 7.84306 13.9216 7.84306V7.84306M2.15405 7.84306L1.75676 4.67002M2.15405 7.84306H13.9216M1.75676 4.67002H14.2811M1.75676 4.67002V4.67002C1.33881 4.67002 1 4.33121 1 3.91326V3.26025C1 2.99372 1.21606 2.77767 1.48258 2.77767V2.77767C1.6526 2.77767 1.81008 2.6882 1.89712 2.54215L2.52535 1.48804C2.70572 1.1854 3.03204 1 3.38436 1H12.6397C12.9892 1 13.3134 1.1825 13.4947 1.48134L14.1468 2.55626C14.2302 2.69372 14.3793 2.77767 14.54 2.77767V2.77767C14.7941 2.77767 15 2.9836 15 3.23763V3.9511C15 4.34815 14.6781 4.67002 14.2811 4.67002V4.67002M14.2811 4.67002L13.9216 7.84306" stroke="white" stroke-width="2"/>
</svg>
