<svg width="14" height="19" viewBox="0 0 14 19" fill="none" xmlns="http://www.w3.org/2000/svg">
<path d="M13 18C13 14.6863 10.3137 12 7 12C3.68629 12 1 14.6863 1 18" stroke="white" stroke-width="2" stroke-linecap="round"/>
<path d="M9.31061 8.32367C8.64545 8.7643 7.86254 9 7.06093 9C5.98579 9 4.95641 8.5765 4.19879 7.82538C3.44146 7.07456 3.01758 6.05807 3.01758 5C3.01758 4.21081 3.25359 3.43862 3.69678 2.78104C4.14004 2.12335 4.77098 1.60945 5.51079 1.30564C6.25069 1.0018 7.06534 0.922174 7.85136 1.07718C8.63735 1.23218 9.35815 1.61455 9.92307 2.17462C10.4879 2.7346 10.8716 3.447 11.0269 4.22127C11.1823 4.99548 11.1026 5.79807 10.7977 6.52791C10.4927 7.25784 9.97567 7.88311 9.31061 8.32367Z" stroke="white" stroke-width="2"/>
</svg>
