<svg width="280" height="207" viewBox="0 0 280 207" fill="none" xmlns="http://www.w3.org/2000/svg">
<path d="M267.498 145.72C257.716 165.313 242.499 179.028 224.454 188.441C224.369 188.479 224.283 188.537 224.199 188.575C200.086 201.062 170.965 205.902 142.881 206.825C115.787 207.728 89.6811 204.962 69.9812 201.87C56.6767 199.527 41.1947 198.631 28.9458 192.073C20.6815 187.752 13.7974 181.104 8.78721 172.998C2.73767 163.163 -0.499605 151.214 0.0628493 138.747C0.658967 125.723 3.31695 111.334 9.96402 97.3694C23.8697 68.1132 55.5299 40.1062 87.7034 37.57C99.9385 36.6086 117.081 38.2799 134.429 26.1208C138.414 23.3285 139.734 22.3387 143.441 19.6902C148.746 15.9002 175.937 -3.52905 208.38 0.562988C216.339 1.56702 242.882 6.29152 261.86 31.3465C287.773 65.5612 282.44 115.788 267.498 145.72Z" fill="#DFEAF7"/>
<path d="M232.072 171.173C229.26 178.223 226.568 184.119 224.454 188.442C224.369 188.48 224.283 188.539 224.199 188.577C200.086 201.063 170.965 205.903 142.881 206.826C133.662 206.904 125.142 206.442 117.474 205.674C105.001 196.973 99.3943 183.699 102.207 174.478C102.957 172.019 104.32 169.829 106.33 168.12C124.973 152.137 154.981 151.715 161.235 133.447C165.392 121.268 175.839 87.3051 182.33 66.0401C184.342 59.4704 199.099 42.0476 216.702 42.9694C231.34 43.7189 241.223 57.4924 242.195 58.8743C264.125 90.3584 240.251 150.542 232.072 171.173Z" fill="#E5872F"/>
<path d="M204.681 180.823C204.645 180.823 204.606 180.82 204.566 180.815L178.08 176.869C177.595 176.796 177.257 176.296 177.319 175.752C177.383 175.212 177.797 174.84 178.309 174.894L204.795 178.84C205.28 178.913 205.618 179.413 205.555 179.957C205.498 180.458 205.118 180.823 204.681 180.823Z" fill="#A25915"/>
<path d="M226.311 183.813L224.198 188.577C200.085 201.063 170.964 205.903 142.88 206.827C115.785 207.729 89.6797 204.964 69.9798 201.871C71.4623 195.436 77.5119 180.107 102.204 174.479C105.441 173.749 108.986 173.173 112.888 172.808C154.962 168.906 226.311 183.813 226.311 183.813Z" fill="#E5872F"/>
<path d="M50.4462 122.235C49.4842 94.2849 49.8312 59.0403 58.0488 57.0476C58.3318 56.9788 59.3132 56.7571 60.302 57.3313C66.9545 61.1959 59.273 92.6665 50.4462 122.235Z" fill="#40C1B0"/>
<path d="M50.4463 122.236C38.3224 98.2742 32.4756 93.9211 29.4331 94.9854C28.2834 95.3883 27.4584 96.5903 27.1546 97.7118C25.0488 105.449 45.0656 118.76 50.4463 122.236Z" fill="#40C1B0"/>
<path d="M50.4463 122.235C50.4463 122.235 61.757 85.5354 69.577 87.7162C77.3955 89.8969 50.4463 122.235 50.4463 122.235Z" fill="#40C1B0"/>
<path d="M65.0645 160.848C65.0282 161.372 64.5924 161.779 64.0669 161.779H34.939C34.4111 161.779 33.9742 161.369 33.941 160.842L31.4802 121.756C31.444 121.18 31.9013 120.693 32.4783 120.693H66.7773C67.3568 120.693 67.815 121.185 67.7749 121.763L65.0645 160.848Z" fill="#FF828A"/>
<path d="M29.27 163.249L68.858 163.249" stroke="#C7DDEF" stroke-width="3" stroke-linecap="round"/>
<path d="M152.924 53.5369C152.924 53.5369 142.16 51.1694 144.524 38.8862C146.887 26.6044 153.976 26.752 153.976 26.752C153.976 26.752 165.659 6.47916 187.45 18.761C209.242 31.0428 193.226 48.5052 205.434 60.1952C217.643 71.8851 235.687 125.694 196.472 120.617L152.924 53.5369Z" fill="#451F07"/>
<path d="M182.668 176.369C181.578 178.429 177.689 185.635 171.044 190.169C151.392 203.604 121.487 184.274 111.705 177.946C102.748 172.151 96.0748 165.99 91.758 161.556L76 202.889C65.5 201.347 62.5 201.347 53 199.292C58.5 185.417 69.4986 129.919 82.4332 129.155C98.888 128.175 141.375 153.567 141.375 153.567L188.045 151.79C188.207 156.076 188.074 166.107 182.668 176.369Z" fill="#451F07"/>
<path d="M176.291 82.5423C176.291 82.5423 157.563 95.3668 158.438 100.3C159.314 105.233 159.314 105.233 159.314 105.233L141.373 153.573C147.322 155.853 154.622 158.081 163.077 159.492C172.488 161.063 180.829 161.202 187.597 160.807C190.267 151.215 206.871 90.3488 192.483 81.3586C191.303 80.6218 189.851 80.1926 188.041 80.2487L176.291 82.5423Z" fill="#FFB042"/>
<path d="M122.497 123.962L108.448 117.49C107.528 117.066 106.898 115.775 106.898 114.311V73.6993C106.898 71.4712 108.312 69.8747 109.714 70.5198L123.763 76.9922C124.683 77.416 125.313 78.7077 125.313 80.1717V120.783C125.313 123.011 123.899 124.608 122.497 123.962Z" fill="white"/>
<path d="M190.078 111.919C182.594 122.746 174.992 130.137 168.791 135.135C166.98 136.596 165.286 137.841 163.753 138.921C153.617 146.045 149.58 145.879 148.005 145.697C133.657 144.003 126.982 117.099 126.63 115.638L116.951 114.907C116.951 114.907 110.837 106.753 112.075 104.047C113.328 101.34 116.392 100.244 116.392 100.244C116.392 100.244 109.645 97.0385 113.018 94.5316C116.392 92.0068 125.628 96.6079 125.628 96.6079C125.628 96.6079 124.656 90.2312 129.827 93.2029C134.983 96.1595 137.517 113.231 137.517 113.231C142.173 124.075 150.23 123.162 158.26 118.097C170.473 110.425 182.596 93.2043 182.596 93.2043L190.078 111.919Z" fill="#FFB3AE"/>
<path d="M192.916 114.183C190.219 117.453 186.944 121.003 183.027 124.542C177.946 129.133 173.042 132.571 168.791 135.136C165.83 130.386 161.41 123.279 158.257 118.097C165.522 112.733 170.129 107.175 173.05 102.936C176.598 97.7871 178.595 93.2257 183.38 91.6729C186.226 90.7488 190.116 90.8719 192.741 93.2681C196.827 96.9998 197.522 105.953 192.916 114.183Z" fill="#FFB042"/>
<path d="M149.117 83.2267C149.117 83.2267 147.926 76.2281 140.973 81.9008C134.02 87.5736 131.088 90.0026 132.358 92.4138C133.626 94.8251 141.372 89.5966 141.372 89.5966" fill="#FFB3AE"/>
<path d="M141.364 100.321V100.345C139.918 100.896 138.922 100.46 138.25 99.5656C136.519 97.2937 136.683 92.2006 136.683 92.2006C137.545 91.7645 138.406 91.3285 139.268 90.8938C139.966 94.0364 140.665 97.1789 141.364 100.321Z" fill="#FFB3AE"/>
<path d="M143.012 100.849C142.36 101.056 141.811 100.849 141.364 100.345V100.321C141.058 100 140.794 99.5423 140.59 99.0133C140.57 98.9901 140.57 98.9669 140.57 98.9669C139.39 96.0307 139.267 90.8911 139.267 90.8911C140.435 89.1537 141.601 87.415 142.769 85.6776C143.759 87.851 144.749 90.0245 145.739 92.1979C145.739 92.2006 146.492 99.679 143.012 100.849Z" fill="#FFB3AE"/>
<path d="M151.804 125.443L143.664 123.677L146.982 121.681C139.187 121.292 138.251 99.5658 138.251 99.5658C138.923 100.46 139.92 100.896 141.365 100.345C141.812 100.849 142.362 101.056 143.013 100.849C146.493 99.6793 145.74 92.2008 145.74 92.2008L141.018 91.2372C141.079 90.6863 141.262 90.0903 141.547 89.4478L149.056 83.2762C149.768 83.1846 150.44 83.2297 151.03 83.391H151.112C153.758 84.0799 155.528 86.9245 155.507 89.9755V90.4566C155.426 103.051 155.1 108.787 157.523 110.049C158.174 110.37 158.479 110.117 158.784 110.508C160.86 113.078 151.804 125.443 151.804 125.443Z" fill="#FFB3AE"/>
<path d="M150.724 101.332C150.649 101.332 150.569 101.322 150.491 101.3C149.63 101.072 147.504 100.286 146.351 97.9145C145.079 95.2708 145.576 91.8864 147.581 89.486C147.966 89.024 148.61 89.0021 149.02 89.4368C149.43 89.8715 149.449 90.6001 149.064 91.0594C147.683 92.7106 147.301 95.0781 148.137 96.8169C148.894 98.3738 150.361 98.9096 150.955 99.0682C151.503 99.2145 151.842 99.8296 151.713 100.446C151.604 100.975 151.187 101.332 150.724 101.332Z" fill="#FF7A72"/>
<path d="M142.577 94.5449C142.111 94.5449 141.687 94.4506 141.303 94.2633C140.822 94.0282 139.729 93.2436 140.009 91.0729C140.09 90.4427 140.616 90.0217 141.164 90.1024C141.72 90.194 142.103 90.7763 142.025 91.4037C141.983 91.7236 141.993 92.0981 142.114 92.1569C142.381 92.2868 143.224 92.4549 145.246 91.1973C146.586 90.3703 147.675 89.3875 147.685 89.3779C148.114 88.9897 148.762 89.0348 149.118 89.5037C149.473 89.9766 149.456 90.6601 149.049 91.077L148.365 90.2282L149.041 91.0866C148.911 91.2123 147.721 92.2867 146.229 93.208C144.794 94.102 143.588 94.5449 142.577 94.5449Z" fill="#FF7A72"/>
<path d="M141.546 90.596C141.396 90.596 141.247 90.5604 141.104 90.4839C140.597 90.2077 140.385 89.523 140.628 88.9516C141.638 86.5854 144.071 83.4497 147.617 82.3985C148.083 82.2646 148.513 82.188 148.946 82.1361C149.494 82.0773 150.007 82.5229 150.066 83.1531C150.126 83.7832 149.723 84.3491 149.164 84.4161C148.822 84.4585 148.483 84.5172 148.125 84.617C145.444 85.4126 143.348 87.8662 142.464 89.9453C142.288 90.3554 141.924 90.596 141.546 90.596Z" fill="#FF7A72"/>
<path d="M158.259 119.243C157.911 119.243 157.572 119.043 157.382 118.682C157.096 118.138 157.252 117.434 157.736 117.109C157.85 117.032 169.157 109.353 175.277 97.6317C175.561 97.0822 176.188 96.9058 176.671 97.2257C177.153 97.5455 177.317 98.2495 177.031 98.7963C170.643 111.036 159.259 118.757 158.779 119.08C158.614 119.192 158.436 119.243 158.259 119.243Z" fill="#FF7A72"/>
<path d="M188.049 80.2479C186.177 82.3584 173.417 96.6975 168.288 96.6045C168.003 96.6045 167.433 96.5581 167.169 96.1453C165.621 93.76 176.286 82.5402 176.286 82.5402C176.103 81.5533 175.899 80.591 175.716 79.6041L174.943 75.6578C174.271 76.4151 173.253 77.4703 171.889 78.5707C170.16 79.9936 166.171 83.0214 162.894 83.1362C156.768 83.3194 152.658 69.4178 152.658 69.4178C151.68 69.0514 150.704 68.707 149.706 68.3393C150.439 65.9075 151.152 63.4757 151.863 61.044C149.421 54.0234 151.863 39.9154 151.863 39.9154L152.922 35.4182C154.143 37.6436 158.233 44.5028 166.394 48.0131C173.781 51.1789 180.233 49.734 182.594 49.0916C183.388 53.6804 184.202 58.2459 184.995 62.8333V62.8565C185.565 66.1139 186.135 69.3945 186.725 72.6519C187.153 75.178 187.601 77.7246 188.049 80.2479Z" fill="#FFB3AE"/>
<path d="M187.618 57.8553C186.308 62.3429 183.38 65.2887 181.077 64.4343C178.774 63.58 177.968 59.2496 179.278 54.7619C180.587 50.2743 183.516 47.3286 185.818 48.183C188.122 49.0373 188.927 53.3677 187.618 57.8553Z" fill="#FFB3AE"/>
<path d="M186.726 72.6549L175.716 79.6057L174.943 75.6594L184.996 62.8582C185.566 66.1169 186.136 69.3975 186.726 72.6549Z" fill="#FF7A72"/>
</svg>
