<svg width="230" height="207" viewBox="0 0 230 207" fill="none" xmlns="http://www.w3.org/2000/svg">
<path d="M225.855 166.746C222.449 173.693 216.684 179.91 209.157 185.233C171.949 211.632 91.8162 216.766 43.746 185.233C35.8143 180.051 28.7621 173.858 22.9266 166.605C7.34829 147.271 -1.87073 117.693 0.320125 89.7629C1.22499 78.2946 2.58291 63.7882 13.2305 51.1882C34.7163 25.8023 74.3549 31.5477 76.3552 31.8771C104.107 36.3275 104.583 52.6953 144.721 77.8467C189.361 105.846 214.778 101.89 225.736 126.9C230.761 138.345 232.001 154.17 225.855 166.746Z" fill="#DFEAF7"/>
<path d="M82.8395 175.712L92.1506 134.4C94.4853 124.04 101.505 115.314 111.191 110.732L138.667 97.7357L166.858 109.328C178.192 113.989 186.474 123.875 188.993 135.753L197.466 175.712H82.8395Z" fill="#E5872F"/>
<path d="M121.254 162.502C121.254 162.502 128.603 152.978 132.138 153.585C135.671 154.193 142.202 165.585 142.202 165.585H171.345L172.164 158.294C172.164 158.294 190.807 161.637 197.465 175.713H124.53L121.254 162.502Z" fill="#FFB0B3"/>
<path d="M172.164 159.177C171.71 159.177 171.322 158.839 171.275 158.384L168.745 133.79C168.696 133.305 169.051 132.87 169.542 132.822C170.038 132.783 170.472 133.125 170.522 133.61L173.052 158.204C173.101 158.689 172.745 159.123 172.254 159.172C172.223 159.175 172.193 159.177 172.164 159.177Z" fill="#A25915"/>
<path d="M125.607 93.582V112.722C125.607 112.722 124.224 124.571 131.907 123.507C139.59 122.444 147.74 101.465 147.74 101.465L146.472 82.8473L125.607 93.582Z" fill="#FFB0B3"/>
<path d="M147.461 97.2514L125.617 111.098V93.5771L146.46 82.8386L147.461 97.2514Z" fill="#FF7A72"/>
<path d="M147.639 80.1454C153.368 65.5144 149.625 50.4439 139.279 46.4846C128.932 42.5252 115.901 51.1763 110.172 65.8074C104.444 80.4384 108.187 95.5089 118.533 99.4682C128.879 103.428 141.911 94.7764 147.639 80.1454Z" fill="#FFB3AE"/>
<path d="M150.182 69.4926C150.182 69.4926 139.486 63.7073 133.648 50.2389C133.648 50.2389 106.298 71.404 99.844 58.4422C93.3901 45.4804 109.371 35.251 111.215 44.0618C111.215 44.0618 125.948 20.4663 150.182 36.163C174.416 51.8596 150.182 69.4926 150.182 69.4926Z" fill="#451F07"/>
<path d="M154.146 75.8492C152.589 80.1398 149.27 82.8896 146.734 81.9888C144.199 81.088 143.404 76.881 144.961 72.5903C146.518 68.2997 149.837 65.5499 152.374 66.4494C154.911 67.349 155.703 71.5585 154.146 75.8492Z" fill="#FFB3AE"/>
<path d="M59.2306 140.671H33.1069V175.72H59.2306V140.671Z" fill="#F3B573"/>
<path d="M23.1917 158.314C23.1917 161.366 25.7094 163.837 28.7963 163.837C30.5379 163.837 32.0901 163.052 33.1073 161.826V169.258C31.7797 169.787 30.3145 170.059 28.7963 170.059C22.2262 170.059 16.898 164.809 16.898 158.314C16.898 151.819 22.2262 146.551 28.7963 146.551C30.3132 146.551 31.7797 146.824 33.1073 147.352V154.784C32.0901 153.557 30.5379 152.773 28.7963 152.773C25.7094 152.774 23.1917 155.246 23.1917 158.314Z" fill="#F3B573"/>
<path d="M40.4304 114.473C43.6435 109.622 48.3192 105.701 50.6767 100.391C53.9175 93.0919 52.2125 84.4968 54.6861 76.9099C58.2753 65.9019 69.6233 59.4166 76.2754 49.9021C83.5168 39.5441 84.6451 25.306 79.1225 13.9599C76.6022 8.7809 72.6408 4.09473 67.3491 1.71173C61.0757 -1.11419 53.4304 -0.319438 47.5267 3.20017C41.623 6.71978 37.4495 12.7397 35.5918 19.3023C31.012 35.4843 39.8688 52.9301 36.3528 69.3703C34.2629 79.1457 27.9617 87.6484 25.8352 97.4162C23.9863 105.913 25.7267 115.002 30.1664 122.459C31.4663 124.644 35.0883 131.544 37.0217 126.797C37.7549 124.998 37.3031 122.786 37.6994 120.891C38.1739 118.612 39.1431 116.414 40.4304 114.473Z" fill="#F1F3F6"/>
<path d="M222.912 175.712H18.6132V185.232H222.912V175.712Z" fill="#D18C7E"/>
<path d="M128.5 171.137C129.125 173.653 127.492 175.711 124.871 175.711H64.333C61.7131 175.711 59.0578 173.653 58.4344 171.137L47.388 126.614C46.7633 124.097 48.3963 122.04 51.0175 122.04H111.555C114.175 122.04 116.83 124.099 117.454 126.614L128.5 171.137Z" fill="white"/>
<path d="M93.8972 149.505C94.5723 153.145 92.1341 156.097 88.4516 156.097C84.769 156.097 81.2379 153.146 80.564 149.505C79.8888 145.866 82.327 142.915 86.0096 142.915C89.6896 142.914 93.222 145.865 93.8972 149.505Z" fill="#DFEAF7"/>
</svg>
