<svg width="280" height="207" viewBox="0 0 280 207" fill="none" xmlns="http://www.w3.org/2000/svg">
<path d="M260.887 153.803C255.873 162.452 249.835 170.87 242.697 178.903L242.671 178.929C242.595 179.005 242.517 179.109 242.441 179.185C228.267 195.1 207.671 203.774 186.36 203.493L104.313 202.418C104.313 202.418 78.0631 194.768 51.8653 178.929C51.8394 178.929 51.8394 178.903 51.8135 178.903C37.7939 170.408 23.7742 159.508 13.8734 146.253C5.42993 134.969 -0.0181916 121.893 0.0321127 107.053C0.0321127 107.053 -4.21478 54.4198 84.97 51.4515C125.726 46.6917 118.791 -1.7198 206.161 0.0471923C209.154 0.0990281 212.071 0.303298 214.859 0.661575C219.618 1.25006 224.145 2.27309 228.418 3.62996C251.136 10.9998 267.024 28.9364 274.699 51.8875C276.158 56.2371 277.335 60.7667 278.204 65.4486C283.17 92.5206 277.977 124.429 260.887 153.803Z" fill="#DFEAF7"/>
<path d="M278.198 65.4424H214.871V0.661377C219.631 1.26206 224.147 2.28508 228.416 3.64196C251.149 11.0057 267.03 28.9363 274.704 51.8949C276.173 56.2323 277.33 60.771 278.198 65.4424Z" fill="#F1F3F6"/>
<path d="M274.705 51.895H228.418V3.64209C251.149 11.0058 267.032 28.9364 274.705 51.895Z" fill="#DFEAF7"/>
<path d="M247.575 146.262H209.851C209.904 137.912 209.956 129.562 210.01 121.212C209.235 120.776 208.581 120.272 208.028 119.725C200.601 112.377 208.436 94.3394 209.351 92.2888C210.999 94.7098 212.648 97.1293 214.296 99.5504H224.537C225.893 97.1232 227.25 94.6961 228.607 92.2705C229.697 94.5818 230.746 97.1827 231.646 100.067C234.244 108.388 234.616 115.903 234.352 121.517C237.643 121.64 239.851 122.668 247.575 146.262Z" fill="#F3B573"/>
<path d="M214 108.5C214 109.328 213.777 110 213.5 110C213.223 110 213 109.329 213 108.5C213 107.672 213.225 107 213.5 107C213.777 107 214 107.672 214 108.5Z" fill="white"/>
<path d="M107.553 146.263H84.3953L93.4988 109.62H116.657L107.553 146.263Z" fill="#F3B573"/>
<path d="M162.949 125.582C163.208 128.016 161.417 130.007 158.971 130.007H39.4782C37.0316 130.007 34.8182 128.016 34.5591 125.582L26.6385 51.1082C26.3793 48.675 28.1704 46.6838 30.617 46.6838H150.109C152.556 46.6838 154.769 48.675 155.029 51.1082L162.949 125.582Z" fill="white"/>
<path d="M162.949 125.582C163.208 128.016 161.417 130.007 158.971 130.007H39.4782C37.0316 130.007 34.8182 128.016 34.5591 125.582L26.6385 51.1082C26.3793 48.675 28.1704 46.6838 30.617 46.6838H150.109C152.556 46.6838 154.769 48.675 155.029 51.1082L162.949 125.582Z" fill="#F3B573"/>
<path d="M44.4751 124.45C42.0285 124.45 39.8151 122.459 39.556 120.025L32.8167 56.6653C32.5576 54.2321 34.3487 52.241 36.7953 52.241H145.114C147.561 52.241 149.774 54.2321 150.033 56.6653L156.771 120.025C157.03 122.459 155.239 124.45 152.792 124.45H44.4751Z" fill="#FADABE"/>
<path d="M71.4488 72.0584H45.6352L45.0056 68.031H70.8193L71.4488 72.0584Z" fill="#FF828A"/>
<path d="M104.038 72.0584H78.2247L77.5966 68.031H103.409L104.038 72.0584Z" fill="white"/>
<path d="M73.3711 83.7308H47.5574L46.9278 79.7034H72.7415L73.3711 83.7308Z" fill="white"/>
<path d="M92.7398 93.6692H66.9261L66.298 89.6418H92.1102L92.7398 93.6692Z" fill="white"/>
<path d="M108.076 105.017H82.2643L81.6347 100.989H107.447L108.076 105.017Z" fill="white"/>
<path d="M123.783 105.017H110.877L110.247 100.989H123.154L123.783 105.017Z" fill="#FF828A"/>
<path d="M121.297 93.6692H95.4851L94.8556 89.6418H120.669L121.297 93.6692Z" fill="#FF828A"/>
<path d="M242.697 178.905L242.671 178.931C242.594 179.007 242.517 179.111 242.44 179.187C228.267 195.102 207.671 203.776 186.36 203.495L104.313 202.42C104.313 202.42 78.0631 194.77 51.8652 178.931C51.8393 178.931 51.8393 178.905 51.8134 178.905H242.697Z" fill="#BC7F72"/>
<path d="M260.89 153.801C255.872 162.451 249.815 170.897 242.666 178.917H51.879C37.8228 170.416 23.7848 159.542 13.8764 146.262H255.501L260.89 153.801Z" fill="#D18C7E"/>
<path d="M180.545 93.6566C174.976 110.425 160.85 120.828 148.992 116.89C137.134 112.952 132.035 96.1646 137.604 79.3942C143.172 62.6254 157.298 52.2231 169.156 56.1611C181.013 60.0991 186.112 76.8862 180.545 93.6566Z" fill="#FFB3AE"/>
<path d="M181.681 97.657H157.698V126.266H181.681V97.657Z" fill="#FFB3AE"/>
<path d="M135.802 86.924C135.802 86.924 116.002 75.6512 131.735 56.065C135.802 50.1237 135.802 62.2273 135.802 62.2273C135.802 62.2273 149.309 23.0563 172.207 48.0335C172.207 48.0335 193.848 51.6986 198.658 66.3025C200.214 71.0272 199.365 75.0551 198.516 79.3926C198.217 80.9171 192.705 107.205 174.198 110.447C171.608 110.901 165.57 111.462 157.695 107.311C150.396 100.514 143.099 93.719 135.802 86.924Z" fill="#451F07"/>
<path d="M155.355 96.7711C155.826 102.003 154.443 106.403 152.27 106.6C150.094 106.797 147.951 102.714 147.48 97.4815C147.009 92.2492 148.392 87.8492 150.565 87.6526C152.741 87.4559 154.884 91.5387 155.355 96.7711Z" fill="#FFB3AE"/>
<path d="M232.395 198.895C232.395 198.895 227.691 201.58 214.987 203.859C200.449 206.471 175.448 208.546 135.056 205.452C125.666 204.748 115.444 203.748 104.333 202.415C104.333 202.415 107.519 187.764 115.13 170.39C125.52 146.645 144.206 117.806 174.318 114.379C204.06 110.989 218.766 138.958 225.913 163.629C231.302 182.207 232.395 198.895 232.395 198.895Z" fill="#E5872F"/>
<path d="M232.395 198.895C232.395 198.895 227.691 201.58 214.987 203.859L211.116 169.02L225.914 163.63C231.302 182.207 232.395 198.895 232.395 198.895Z" fill="#FFB3AE"/>
<path d="M139.809 178.917L138.216 187.863C136.401 197.921 127.142 204.885 116.974 203.83C112.9 203.405 108.677 202.942 104.325 202.423C90.0279 200.83 62.5084 160.544 62.5084 160.544L54.9902 162.008C52.5452 170.677 50.7129 172.881 49.379 172.807C46.5635 172.659 45.1382 162.119 46.0818 155.859C46.2678 154.675 46.6001 153.173 47.786 152.173C48.8043 151.321 50.1748 151.062 51.3973 151.043C52.972 151.191 53.7494 151.284 54.0832 151.302C53.6762 151.228 52.6199 151.025 51.3973 151.043C51.2129 151.025 51.0086 151.007 50.786 150.988C51.6199 143.654 56.2311 137.56 62.5831 135.43C68.4718 133.448 73.676 135.596 75.1394 136.246C75.1394 136.246 76.9549 135.098 81.3253 135.505C85.6956 135.93 88.0111 146.563 88.0111 146.563L115.124 170.401C120.178 173.99 128.957 178.806 139.809 178.917Z" fill="#FFB3AE"/>
<path d="M54.0818 152.58C54.0041 152.58 53.9263 152.573 53.8501 152.56C53.4126 152.478 52.4584 152.318 51.4172 152.321C50.7419 152.406 50.1306 151.766 50.12 151.059C50.1093 150.355 50.6748 149.772 51.3821 149.762C52.6809 149.765 53.8029 149.946 54.2754 150.036C54.9705 150.164 55.4492 150.833 55.3226 151.527C55.2053 152.146 54.6839 152.58 54.0818 152.58Z" fill="#FF7A72"/>
<path d="M108.407 184.181C108.203 184.181 107.994 184.131 107.802 184.029C107.18 183.693 106.945 182.919 107.281 182.297L113.997 169.79C114.333 169.168 115.108 168.937 115.729 169.269C116.351 169.604 116.586 170.379 116.25 171.001L109.534 183.507C109.304 183.936 108.862 184.181 108.407 184.181Z" fill="#FF7A72"/>
<path d="M211.118 169.979C210.673 169.979 210.273 169.669 210.179 169.216L205.35 146.262C205.243 145.745 205.572 145.235 206.092 145.125C206.628 145.03 207.119 145.351 207.229 145.867L212.058 168.821C212.165 169.338 211.836 169.849 211.316 169.959C211.247 169.971 211.182 169.979 211.118 169.979Z" fill="#A25915"/>
<path d="M139.809 179.876C139.654 179.876 139.5 179.838 139.355 179.762C138.889 179.51 138.713 178.928 138.965 178.463L147.765 162.136C148.018 161.667 148.602 161.502 149.064 161.746C149.53 161.998 149.705 162.58 149.454 163.045L140.654 179.372C140.482 179.693 140.149 179.876 139.809 179.876Z" fill="#A25915"/>
</svg>
