<svg width="245" height="207" viewBox="0 0 245 207" fill="none" xmlns="http://www.w3.org/2000/svg">
<g clip-path="url(#clip0_606_248)">
<path d="M148.653 154.695C166.517 154.695 180.998 146.258 180.998 135.851C180.998 125.443 166.517 117.006 148.653 117.006C130.789 117.006 116.307 125.443 116.307 135.851C116.307 146.258 130.789 154.695 148.653 154.695Z" fill="#C7DDEF"/>
<path d="M209.844 167.98C171.971 201.521 97.9706 185.795 74.3598 178.211C45.3562 168.893 23.2163 147.861 10.9706 120C6.25586 109.298 5.12643 93.643 7.9328 81.6423C7.9328 81.6423 14.3128 38.2575 86.8772 52.4385C120.672 56.1647 124.095 15.6966 194.311 33.3723C196.719 33.9709 199.035 34.6785 201.22 35.4868C204.953 36.848 208.418 38.5178 211.615 40.4104C228.584 50.5988 238.071 68.0691 239.991 88.0702C243.243 121.647 236.151 144.683 209.844 167.98Z" fill="#DFEAF7"/>
<path d="M180.618 94.6793C180.591 93.9508 180.591 93.2314 180.848 92.5621C181.042 92.0613 181.372 91.6242 181.597 91.1325C181.954 90.3448 182.021 89.457 182.301 88.642C182.558 87.8954 182.991 87.217 183.56 86.6706C183.826 86.4156 184.124 86.188 184.354 85.9012C184.589 85.6098 184.751 85.2637 184.909 84.9223C185.437 83.8022 186.041 82.6458 187.075 81.9765C187.878 81.462 188.83 81.3118 189.705 80.9703C190.513 80.6607 190.738 79.8731 191.397 79.3631C192.705 78.3569 194.51 79.568 195.949 78.8077C196.68 78.4207 197.181 78.061 198.052 78.0291C198.765 78.0018 199.491 78.2203 200.195 78.1338C200.863 78.0473 201.364 77.6285 201.982 77.4008C202.916 77.0548 203.904 77.3052 204.856 77.3917C205.84 77.4782 206.805 77.0958 207.793 77.2187C207.87 77.2278 207.951 77.2414 208.014 77.2915C208.114 77.3689 208.145 77.5146 208.118 77.6376C207.987 78.2659 207.392 78.7075 207.031 79.2038C205.483 81.3118 206.349 84.3258 204.869 86.4065C204.549 86.8573 204.116 87.2261 203.886 87.7314C203.719 88.1048 203.674 88.5191 203.638 88.9243C203.516 90.3084 203.421 91.7927 202.577 92.8945C201.819 93.8825 200.565 94.4061 199.861 95.4396C199.279 96.2955 199.036 97.5294 198.07 97.9027C197.632 98.0712 197.136 98.012 196.703 98.1896C195.945 98.4946 195.607 99.4098 194.912 99.8423C194.077 100.366 192.949 100.079 192.051 100.484C191.338 100.808 190.869 101.527 190.179 101.905C189.322 102.374 188.397 102.123 187.499 102.351C186.628 102.57 185.902 103.157 185.04 103.403C184.539 103.544 184.007 103.567 183.497 103.68C182.784 103.84 182.125 104.172 181.502 104.555C181.313 104.673 181.056 104.791 180.893 104.641C180.835 104.586 180.803 104.509 180.776 104.436C180.451 103.567 180.086 102.624 180.032 101.691C179.977 100.776 179.653 99.856 179.829 98.9317C179.959 98.226 180.343 97.5886 180.514 96.8874C180.69 96.1726 180.636 95.4214 180.609 94.6793H180.618Z" fill="#E5872F"/>
<path opacity="0.1" d="M197.605 80.2009C197.565 80.2737 197.52 80.342 197.465 80.4058C197.434 80.4467 197.393 80.4877 197.344 80.4923C197.28 80.4968 197.226 80.4422 197.208 80.383C197.19 80.3238 197.199 80.2555 197.208 80.1918C197.244 79.9141 197.262 79.4451 196.987 79.2994C196.744 79.1719 196.374 79.2903 196.175 79.4497C195.846 79.7183 195.692 80.1417 195.539 80.5378C195.34 81.0568 195.11 81.5668 194.858 82.063C194.767 82.2361 194.605 82.4409 194.424 82.3727C194.262 82.3089 194.249 82.0904 194.235 81.9174C194.217 81.7443 194.095 81.5258 193.933 81.585C193.865 81.6077 193.824 81.6715 193.788 81.7307C193.518 82.1678 193.278 82.6276 193.071 83.0966C193.008 83.2423 192.945 83.3925 192.832 83.5018C192.719 83.6111 192.539 83.6657 192.403 83.5928C192.331 83.5519 192.281 83.4836 192.241 83.4153C192.02 83.0237 192.024 82.5457 191.979 82.0949C191.929 81.6442 191.785 81.1479 191.388 80.9339C190.634 81.1206 190.228 81.9629 190.111 82.7369C189.994 83.5109 190.061 84.3259 189.791 85.0589C189.759 85.1499 189.714 85.241 189.642 85.3002C189.461 85.4504 189.173 85.3366 189.033 85.1454C188.812 84.8495 188.74 84.0208 188.18 84.3122C187.72 84.5535 187.819 85.3685 187.553 85.7691C187.535 85.801 187.508 85.8283 187.476 85.842C187.39 85.8739 187.314 85.7737 187.269 85.6918C187.106 85.3548 186.921 84.6173 186.592 84.4169C186.199 84.1756 185.879 84.7038 185.793 85.027C185.392 86.5796 186.037 88.337 185.324 89.7712C185.292 89.8304 185.261 89.8941 185.207 89.9397C184.841 90.2447 184.422 89.5845 184.34 89.3068C184.178 88.7377 184.07 88.1003 184.192 87.5129C184.255 87.2079 184.381 86.9165 184.507 86.6342C184.724 86.1379 184.941 85.6371 185.157 85.1408C185.342 84.7174 185.491 84.1437 185.789 83.7886C186.335 83.1421 187.016 82.532 187.792 82.186C188.442 81.8991 189.168 81.7808 189.764 81.3938C190.549 80.8838 191.045 79.955 191.916 79.6181C192.39 79.4314 192.917 79.4542 193.427 79.436C194.258 79.4041 195.083 79.263 195.873 79.0171C196.649 78.7758 197.42 78.4526 198.246 78.4207C198.508 78.4116 199.329 78.3797 199.446 78.6848C199.554 78.967 198.995 79.5817 198.81 79.7547C198.742 79.8184 198.67 79.8776 198.58 79.9004C198.49 79.9232 198.386 79.9004 198.332 79.8276C198.251 79.7228 198.296 79.5498 198.201 79.4588C198.115 79.3768 197.966 79.4223 197.894 79.5134C197.817 79.6045 197.795 79.7274 197.763 79.8412C197.727 79.9732 197.673 80.1007 197.605 80.2191V80.2009Z" fill="white"/>
<path opacity="0.1" d="M201.937 77.9608C202.086 77.9016 202.248 77.8561 202.406 77.8743C202.577 77.8925 202.74 77.9699 202.907 78.0154C203.173 78.0837 203.453 78.061 203.728 78.0336C204.247 77.979 204.757 77.9016 205.271 77.8014C205.551 77.7468 205.844 77.6876 206.115 77.7696C205.812 78.2203 205.339 78.5481 204.811 78.671C204.648 78.7075 204.477 78.7257 204.319 78.6802C204.224 78.6528 204.134 78.6028 204.035 78.5845C203.818 78.5436 203.602 78.6619 203.43 78.8031C203.259 78.9442 203.105 79.1172 202.907 79.2037C202.704 79.2948 202.429 79.272 202.311 79.0854C202.275 79.0307 202.257 78.9624 202.207 78.9169C202.131 78.8441 202 78.8577 201.914 78.9169C201.824 78.9761 201.765 79.0672 201.698 79.1491C201.54 79.3403 201.346 79.5042 201.125 79.6135C200.597 79.8867 200.831 79.058 200.962 78.8486C201.197 78.4662 201.517 78.1247 201.937 77.9517V77.9608Z" fill="white"/>
<path opacity="0.1" d="M182.847 90.2174C182.919 90.3039 182.955 90.4132 182.991 90.5224C183.204 91.1371 183.411 91.7517 183.623 92.3664C183.659 92.4757 183.7 92.5895 183.686 92.7079C183.673 92.8217 183.596 92.9401 183.483 92.9583C183.42 92.9674 183.352 92.9446 183.289 92.9583C183.185 92.9765 183.109 93.0766 183.086 93.1814C183.064 93.2861 183.086 93.3954 183.1 93.5001C183.154 93.8461 183.185 94.1921 183.194 94.5427C183.194 94.6247 183.181 94.7294 183.1 94.7521C183.064 94.7612 183.028 94.7521 182.996 94.7339C182.77 94.6383 182.567 94.4835 182.414 94.2832C182.355 94.2058 182.301 94.1147 182.211 94.0737C182.044 93.9872 181.836 94.1056 181.751 94.2695C181.611 94.5336 181.701 94.9707 181.719 95.2621C181.746 95.6309 181.8 95.9951 181.891 96.3502C182.003 96.801 182.17 97.2745 182.039 97.7207C181.999 97.8527 181.927 97.9893 181.796 98.0394C181.751 98.0576 181.697 98.0621 181.651 98.0849C181.489 98.1578 181.457 98.3808 181.489 98.5584C181.539 98.827 181.665 99.0729 181.733 99.337C181.8 99.601 181.787 99.9152 181.593 100.106C181.557 100.143 181.507 100.175 181.457 100.166C181.412 100.156 181.381 100.12 181.345 100.097C181.259 100.052 181.151 100.097 181.092 100.175C181.033 100.252 181.015 100.348 181.006 100.443C180.952 100.894 181.006 101.39 180.754 101.764C180.74 101.782 180.727 101.8 180.704 101.805C180.686 101.805 180.663 101.8 180.645 101.786C180.514 101.7 180.465 101.536 180.424 101.381C180.235 100.662 180.068 99.9152 180.149 99.1776C180.262 98.1486 180.839 97.2198 180.966 96.1909C181.042 95.558 180.948 94.9206 180.952 94.2832C180.952 93.6139 181.119 93.0402 181.453 92.4529C181.588 92.2207 181.742 92.0022 181.873 91.77C182.076 91.4148 182.224 91.0233 182.31 90.6226C182.36 90.3767 182.504 89.8258 182.838 90.2311L182.847 90.2174Z" fill="white"/>
<path opacity="0.1" d="M201.702 80.8792C204.626 79.099 206.81 77.7696 208.122 77.4736C208.136 77.5283 208.136 77.5875 208.122 77.6421C207.992 78.2704 207.396 78.712 207.035 79.2083C205.488 81.3163 206.354 84.3304 204.874 86.4111C204.554 86.8618 204.12 87.2306 203.89 87.736C203.723 88.1093 203.678 88.5237 203.642 88.9289C203.52 90.313 203.426 91.7972 202.582 92.899C201.824 93.887 200.57 94.4106 199.866 95.4441C199.284 96.3001 199.04 97.5339 198.075 97.9073C197.637 98.0757 197.141 98.0166 196.707 98.1941C195.949 98.4992 195.611 99.4143 194.916 99.8468C194.082 100.37 192.954 100.084 192.056 100.489C191.343 100.812 190.874 101.531 190.183 101.909C189.326 102.378 188.401 102.128 187.503 102.356C186.632 102.574 185.906 103.161 185.044 103.407C184.543 103.548 184.011 103.571 183.501 103.685C182.788 103.844 182.13 104.177 181.507 104.559C181.408 104.623 181.286 104.682 181.169 104.705C181.895 102.738 182.852 100.548 184.115 98.2078C189.209 88.7832 197.826 83.2331 201.693 80.8792H201.702Z" fill="black"/>
<path opacity="0.1" d="M199.027 90.5953C199.153 90.6135 199.275 90.6317 199.401 90.6499C200.15 90.7592 200.245 90.2857 199.55 90.0535C199.099 89.9032 198.62 89.8759 198.16 89.753C197.434 89.5572 196.707 89.3614 195.977 89.1611C195.539 89.0427 194.916 88.7559 194.79 88.2687C194.668 87.8043 195.015 87.349 195.399 87.0713C196.342 86.3883 197.565 86.2563 198.729 86.2517C199.694 86.2472 200.723 86.3474 201.67 86.1243C201.946 86.0605 202.343 85.7873 201.95 85.5642C201.716 85.4277 201.174 85.5734 200.908 85.587C199.929 85.6371 198.945 85.5415 197.998 85.2956C197.849 85.2546 197.668 85.1863 197.641 85.0315C197.628 84.9541 197.655 84.8767 197.687 84.8039C197.953 84.2393 198.557 83.9297 199.135 83.7021C200.376 83.2149 201.689 82.9099 203.015 82.8097C203.173 82.796 203.8 82.7687 203.669 82.4409C203.574 82.1996 202.844 82.3499 202.641 82.359C202.158 82.3817 201.666 82.2634 201.251 82.0129C201.427 81.5804 202.113 81.1934 202.474 80.9157C202.97 80.5378 203.484 80.1872 204.017 79.8685C204.147 79.7911 204.351 79.7046 204.436 79.5726C204.766 79.0672 203.823 79.3722 203.633 79.4086C203.015 79.5407 199.726 81.4848 200.227 79.5543C200.303 79.2493 200.407 78.9534 200.533 78.6665C200.394 78.5254 200.155 78.6665 200.024 78.8213C199.726 79.1719 199.523 79.5908 199.297 79.9914C199.013 80.4923 198.697 80.9749 198.341 81.4302C197.939 81.9492 197.465 82.4546 196.852 82.6868C196.617 82.7778 196.306 82.8052 196.152 82.6048C196.026 82.4455 196.062 82.2133 196.112 82.0175C196.238 81.503 196.41 81.0158 196.509 80.5059C196.55 80.2919 196.888 79.5544 196.658 79.3722C196.328 79.1127 195.904 80.515 195.828 80.7427C195.625 81.3482 195.453 81.9674 195.187 82.5502C194.97 83.0191 194.695 83.4562 194.37 83.8523C194.072 84.2166 193.856 84.6036 193.49 84.9132C193.251 85.1135 192.972 85.2774 192.66 85.3275C192.43 85.3639 192.187 85.3412 191.97 85.2546C191.875 85.2182 191.789 85.1681 191.713 85.1044C191.568 84.9769 191.487 84.7948 191.474 84.6081C191.42 84.0026 191.365 83.397 191.311 82.7915C191.298 82.6139 191.32 81.5895 190.901 81.7671C190.725 81.8445 190.725 82.5638 190.72 82.7232C190.716 83.0647 190.752 83.4107 190.779 83.7522C190.869 84.8767 190.824 86.0241 190.513 87.1031C190.359 87.6313 190.129 88.1594 189.719 88.5237C189.303 88.8833 188.672 89.029 188.203 88.7513C187.882 88.5601 187.688 88.2141 187.508 87.8817C187.169 87.2534 186.831 86.6205 186.637 85.933C186.569 85.6917 186.565 85.3093 186.384 85.1226C186.068 84.7948 186.073 85.2729 186.096 85.5096C186.163 86.1334 186.317 86.7526 186.551 87.3353C186.948 88.3233 187.58 89.2795 187.539 90.3448C187.521 90.8457 187.35 91.3283 187.106 91.7608C186.908 92.1114 186.646 92.4483 186.285 92.6213C185.635 92.9355 185.211 92.5029 184.85 91.9794C184.404 91.3283 184.025 90.6317 183.731 89.8987C183.713 89.8486 183.686 89.7939 183.641 89.7712C183.569 89.7348 183.479 89.7848 183.447 89.8577C183.415 89.9305 183.42 90.017 183.434 90.0944C183.664 91.5559 184.895 92.7579 184.922 94.2376C184.936 95.0799 184.552 95.8721 184.142 96.6006C184.016 96.8283 183.826 97.0832 183.569 97.0605C183.397 97.0468 183.267 96.9102 183.163 96.7691C182.685 96.118 182.554 95.2802 182.206 94.5472C182.179 94.4926 182.148 94.4379 182.093 94.4197C181.981 94.3879 181.904 94.5336 181.89 94.6519C181.823 95.2165 182.035 95.7765 182.247 96.3001C182.468 96.8374 182.694 97.3792 182.811 97.9483C183.226 99.9971 181.899 101.764 181.728 103.753C182.184 102.765 182.621 101.759 183.614 101.226C184.44 100.785 185.419 100.639 186.335 100.839C186.935 100.971 187.706 101.418 188.333 101.299C189.159 101.144 187.548 100.653 187.332 100.557C186.912 100.37 186.497 100.17 186.091 99.9516C185.883 99.8377 185.667 99.7148 185.541 99.519C185.283 99.1275 185.45 98.5948 185.698 98.1941C186.222 97.3655 187.088 96.7645 188.045 96.5733C189.876 96.209 191.695 97.3018 193.558 97.2881C193.689 97.2881 193.86 97.2471 193.874 97.1105C193.883 96.9922 193.757 96.9193 193.648 96.8783C192.381 96.3866 191.036 96.1271 189.764 95.6581C189.353 95.5079 188.46 95.2119 188.491 94.661C188.505 94.3742 188.672 94.1192 188.879 93.9235C189.29 93.5365 189.854 93.3543 190.413 93.3179C190.973 93.2815 191.532 93.3726 192.083 93.4727C193.373 93.7049 194.655 93.9781 195.927 94.2877C196.247 94.3651 197.438 94.4243 196.671 93.9735C196.297 93.755 195.855 93.6594 195.453 93.5046C194.591 93.1677 193.752 92.767 192.954 92.2981C192.484 92.0249 191.97 91.6015 192.051 91.0642C192.119 90.6044 192.597 90.3312 193.039 90.2037C194.1 89.9032 195.228 90.058 196.319 90.2128C197.222 90.3403 198.129 90.4723 199.031 90.5998L199.027 90.5953Z" fill="black"/>
<path d="M179.134 108.825C181.746 98.959 187.724 89.6664 196.058 83.7658C198.422 82.0903 200.976 80.5878 203.723 79.6545C203.755 79.6454 203.859 79.6727 203.796 79.7137C201.756 81.1387 199.645 82.4272 197.682 83.9661C195.638 85.5688 193.671 87.2943 191.88 89.1883C188.455 92.8171 185.532 96.8328 183.339 101.34C182.098 103.89 181.101 106.558 180.37 109.303C180.113 110.264 178.908 109.663 179.129 108.83L179.134 108.825Z" fill="#E5872F"/>
<path opacity="0.3" d="M179.134 108.825C181.746 98.959 187.724 89.6664 196.058 83.7658C198.422 82.0903 200.976 80.5878 203.723 79.6545C203.755 79.6454 203.859 79.6727 203.796 79.7137C201.756 81.1387 199.645 82.4272 197.682 83.9661C195.638 85.5688 193.671 87.2943 191.88 89.1883C188.455 92.8171 185.532 96.8328 183.339 101.34C182.098 103.89 181.101 106.558 180.37 109.303C180.113 110.264 178.908 109.663 179.129 108.83L179.134 108.825Z" fill="white"/>
<path d="M183.912 105.734C186.109 105.11 188.302 104.473 190.517 103.935C191.758 103.635 192.99 103.298 194.253 103.098C195.422 102.911 196.635 102.957 197.817 102.979C200.263 103.025 202.708 103.262 205.077 103.872C208.61 104.778 211.985 106.194 215.427 107.377C215.915 107.546 216.406 107.71 216.912 107.801C216.217 107.15 215.626 106.371 215.179 105.515C214.787 104.764 214.489 103.935 213.938 103.303C213.28 102.547 212.332 102.146 211.434 101.736C211.037 101.559 210.636 101.358 210.356 101.017C209.724 100.229 209.575 99.3734 208.569 98.9135C207.712 98.5174 206.656 98.5629 205.921 97.9574C205.578 97.6751 205.339 97.279 205.023 96.9648C204.13 96.0725 203.024 96.2865 201.901 96.1317C201.093 96.0224 200.367 95.4988 199.555 95.5125C199.054 95.5216 198.562 95.7356 198.061 95.7128C197.416 95.6809 196.834 95.2666 196.189 95.2529C195.169 95.2393 194.303 96.2318 193.283 96.1909C192.931 96.1772 192.597 96.0361 192.245 96.0315C191.298 96.0133 190.562 96.9239 189.642 97.1834C189.078 97.3427 188.451 97.2562 187.923 97.5249C187.26 97.8618 186.948 98.654 186.439 99.214C186.014 99.6784 185.446 99.988 185.067 100.493C183.975 101.937 184.909 104.231 183.916 105.747L183.912 105.734Z" fill="#E5872F"/>
<path opacity="0.1" d="M183.912 105.734C186.109 105.11 188.302 104.473 190.517 103.935C191.758 103.635 192.99 103.298 194.253 103.098C195.422 102.911 196.635 102.957 197.817 102.979C200.263 103.025 202.708 103.262 205.077 103.872C208.61 104.778 211.985 106.194 215.427 107.377C215.915 107.546 216.406 107.71 216.912 107.801C216.217 107.15 215.626 106.371 215.179 105.515C214.787 104.764 214.489 103.935 213.938 103.303C213.28 102.547 212.332 102.146 211.434 101.736C211.037 101.559 210.636 101.358 210.356 101.017C209.724 100.229 209.575 99.3734 208.569 98.9135C207.712 98.5174 206.656 98.5629 205.921 97.9574C205.578 97.6751 205.339 97.279 205.023 96.9648C204.13 96.0725 203.024 96.2865 201.901 96.1317C201.093 96.0224 200.367 95.4988 199.555 95.5125C199.054 95.5216 198.562 95.7356 198.061 95.7128C197.416 95.6809 196.834 95.2666 196.189 95.2529C195.169 95.2393 194.303 96.2318 193.283 96.1909C192.931 96.1772 192.597 96.0361 192.245 96.0315C191.298 96.0133 190.562 96.9239 189.642 97.1834C189.078 97.3427 188.451 97.2562 187.923 97.5249C187.26 97.8618 186.948 98.654 186.439 99.214C186.014 99.6784 185.446 99.988 185.067 100.493C183.975 101.937 184.909 104.231 183.916 105.747L183.912 105.734Z" fill="black"/>
<path opacity="0.1" d="M190.517 103.935C188.302 104.473 186.109 105.11 183.912 105.734C184.814 104.354 184.128 102.337 184.819 100.894C184.819 101.377 184.868 101.855 184.963 102.292C184.986 102.406 185.094 102.501 185.202 102.469C185.265 102.451 185.306 102.396 185.347 102.346C185.771 101.8 186.181 101.29 186.723 100.862C187.336 100.38 188.203 100.339 188.821 99.8104C189.29 99.4097 189.601 98.8452 190.039 98.4035C190.693 97.7434 191.623 97.3928 192.525 97.4747C193.445 97.5567 194.37 98.053 195.25 97.7388C195.787 97.5476 196.207 97.0832 196.748 96.9147C197.863 96.5733 198.896 97.5977 200.037 97.7889C200.782 97.9164 201.544 97.6796 202.298 97.6933C203.002 97.7069 203.701 97.9528 204.265 98.3853C204.703 98.7177 205.068 99.1639 205.569 99.3824C206.413 99.7558 207.455 99.4188 208.262 99.8696C209.043 100.307 209.354 101.354 210.126 101.805C210.667 102.123 211.349 102.091 211.917 102.369C212.463 102.633 212.842 103.152 213.198 103.653C213.988 104.755 214.981 106.048 215.585 107.423C215.531 107.405 215.481 107.387 215.427 107.368C211.98 106.185 208.605 104.769 205.077 103.863C202.708 103.252 200.263 103.02 197.817 102.97C196.635 102.947 195.422 102.902 194.253 103.089C192.994 103.289 191.758 103.626 190.517 103.926V103.935Z" fill="black"/>
<path d="M217.426 108.37C217.692 108.393 218.292 108.416 218.08 107.947C218.026 107.824 217.918 107.733 217.809 107.655C217.006 107.068 216.063 107.009 215.323 106.271C214.43 105.379 213.97 104.022 212.892 103.385C211.849 102.765 210.406 102.952 209.548 102.082C209.183 101.714 208.975 101.195 208.583 100.849C207.784 100.152 206.566 100.43 205.569 100.106C204.644 99.8059 203.945 99.0046 203.033 98.6586C201.91 98.2306 200.628 98.5584 199.469 98.2352C198.643 98.003 197.826 97.4429 197.001 97.6934C196.455 97.8573 196.031 98.3581 195.476 98.4856C194.934 98.6131 194.388 98.3627 193.847 98.2397C192.724 97.9893 191.483 98.3444 190.63 99.1549C190.179 99.5828 189.831 100.129 189.335 100.503C188.861 100.862 188.284 101.044 187.751 101.304C185.717 102.296 184.363 105.115 183.163 107.091C184.219 106.471 188.004 105.365 189.195 105.169C197.524 103.794 203.683 103.904 211.615 106.685C213.523 107.355 215.409 108.192 217.421 108.365L217.426 108.37Z" fill="#E5872F"/>
<path opacity="0.1" d="M183.28 107.027C184.503 105.629 186.344 104.773 188.135 104.254C188.559 104.131 188.961 103.986 189.385 103.872C189.777 103.767 190.174 103.617 190.463 103.307C190.567 103.198 190.653 103.066 190.689 102.92C190.734 102.729 190.684 102.533 190.63 102.346C190.54 102.032 190.44 101.718 190.328 101.413C190.26 101.222 190.165 100.712 190.522 100.748C190.625 100.757 190.711 100.826 190.788 100.889C191.275 101.304 191.681 101.814 192.173 102.228C192.602 102.592 193.139 102.888 193.712 102.884C194.226 102.879 194.758 102.465 195.101 102.091C195.552 101.604 195.886 101.008 196.292 100.48C196.536 100.161 196.852 99.8469 197.24 99.8241C197.308 99.8241 197.38 99.8241 197.429 99.8742C197.484 99.9288 197.493 100.015 197.488 100.093C197.465 100.421 197.253 100.698 197.086 100.976C196.956 101.195 196.852 101.427 196.775 101.668C196.689 101.932 196.635 102.224 196.735 102.483C196.829 102.738 197.064 102.916 197.321 102.993C197.867 103.157 198.494 102.847 199.022 102.692C199.852 102.451 200.673 102.187 201.49 101.891C202.18 101.641 202.952 101.258 203.692 101.226C203.881 101.217 204.129 101.29 204.134 101.49C204.134 101.632 204.003 101.732 203.886 101.805C203.566 102.01 203.241 102.214 202.92 102.415C202.726 102.538 202.514 102.683 202.474 102.916C202.438 103.102 202.528 103.293 202.654 103.435C202.956 103.776 203.43 103.89 203.877 103.945C204.626 104.031 205.397 103.995 206.137 103.812C206.462 103.735 206.737 103.553 207.062 103.457C207.464 103.339 207.865 103.216 208.276 103.107C208.497 103.048 208.786 102.929 209.011 103.007C209.945 103.334 207.085 104.486 208.028 104.964C208.975 105.447 210.302 104.946 211.294 104.823C211.479 104.8 212.779 104.687 212.409 105.26C212.368 105.324 212.3 105.37 212.233 105.406C212.088 105.493 211.94 105.57 211.786 105.638C211.709 105.675 211.624 105.711 211.597 105.793C211.57 105.866 211.601 105.948 211.655 106.002C211.709 106.057 211.777 106.084 211.849 106.116C212.887 106.544 213.983 106.836 215.048 107.177C216.023 107.487 217.015 107.728 218.031 107.846C218.053 107.878 218.076 107.91 218.089 107.947C218.301 108.416 217.701 108.393 217.435 108.37C215.423 108.197 213.537 107.359 211.628 106.69C203.696 103.904 197.538 103.799 189.209 105.174C188.058 105.365 184.489 106.403 183.294 107.031L183.28 107.027Z" fill="black"/>
<path d="M178.006 110.31C178.737 109.167 179.892 108.297 181.006 107.591C182.048 106.931 183.158 106.403 184.3 105.966C186.736 105.033 189.313 104.5 191.875 104.172C194.605 103.822 197.371 103.744 200.105 103.986C202.938 104.236 205.709 104.823 208.429 105.652C210.139 106.176 211.836 106.749 213.55 107.255C214.412 107.505 215.278 107.751 216.145 107.992C216.772 108.17 217.39 108.293 218.04 108.124C218.139 108.097 218.116 108.265 218.058 108.302C217.498 108.652 216.894 108.584 216.275 108.502C215.517 108.402 214.768 108.243 214.02 108.083C212.576 107.769 211.154 107.337 209.733 106.95C206.922 106.185 204.102 105.474 201.201 105.174C195.977 104.637 190.495 105.06 185.482 106.854C184.237 107.3 183.023 107.846 181.881 108.543C181.304 108.894 180.763 109.29 180.226 109.704C179.738 110.077 179.305 110.519 178.804 110.874C178.601 111.02 178.362 111.043 178.155 110.892C177.979 110.765 177.875 110.514 178.006 110.305V110.31Z" fill="#E5872F"/>
<path opacity="0.3" d="M178.006 110.31C178.737 109.167 179.892 108.297 181.006 107.591C182.048 106.931 183.158 106.403 184.3 105.966C186.736 105.033 189.313 104.5 191.875 104.172C194.605 103.822 197.371 103.744 200.105 103.986C202.938 104.236 205.709 104.823 208.429 105.652C210.139 106.176 211.836 106.749 213.55 107.255C214.412 107.505 215.278 107.751 216.145 107.992C216.772 108.17 217.39 108.293 218.04 108.124C218.139 108.097 218.116 108.265 218.058 108.302C217.498 108.652 216.894 108.584 216.275 108.502C215.517 108.402 214.768 108.243 214.02 108.083C212.576 107.769 211.154 107.337 209.733 106.95C206.922 106.185 204.102 105.474 201.201 105.174C195.977 104.637 190.495 105.06 185.482 106.854C184.237 107.3 183.023 107.846 181.881 108.543C181.304 108.894 180.763 109.29 180.226 109.704C179.738 110.077 179.305 110.519 178.804 110.874C178.601 111.02 178.362 111.043 178.155 110.892C177.979 110.765 177.875 110.514 178.006 110.305V110.31Z" fill="white"/>
<path opacity="0.1" d="M214.444 106.226C214.295 106.544 213.713 106.253 213.501 106.171C213.334 106.103 213.153 105.998 213.117 105.816C213.095 105.684 213.158 105.552 213.158 105.415C213.158 105.279 213.027 105.128 212.919 105.206C212.968 104.837 212.661 104.5 212.314 104.4C211.967 104.3 211.597 104.382 211.245 104.464C210.893 104.545 210.523 104.627 210.175 104.536C210.121 104.523 210.067 104.505 210.031 104.464C209.923 104.35 209.999 104.154 210.117 104.045C210.23 103.935 210.383 103.867 210.46 103.726C210.315 103.553 210.04 103.612 209.842 103.726C209.643 103.835 209.44 103.99 209.219 103.954C209.102 103.649 209.634 103.389 209.544 103.075C209.503 102.925 209.336 102.861 209.187 102.829C207.996 102.588 206.787 103.321 205.573 103.216C205.524 103.216 205.47 103.207 205.424 103.18C205.253 103.075 205.348 102.793 205.501 102.656C205.654 102.519 205.858 102.406 205.894 102.201C205.366 101.832 204.635 102.72 204.057 102.437C204.044 102.251 204.211 102.105 204.369 102C205.1 101.527 205.93 101.226 206.782 101.135C207.076 101.103 207.383 101.099 207.644 101.231C207.834 101.327 207.987 101.481 208.141 101.632C208.908 102.365 209.837 102.916 210.839 103.234C211.52 103.453 212.251 103.567 212.851 103.963C213.252 104.227 213.568 104.609 213.848 105.001C214.029 105.247 214.574 105.843 214.466 106.189C214.462 106.203 214.457 106.221 214.448 106.235L214.444 106.226Z" fill="white"/>
<path opacity="0.1" d="M203.94 99.8286C203.999 99.9015 204.057 99.9925 204.039 100.088C204.021 100.188 203.926 100.252 203.841 100.298C203.254 100.625 202.609 100.83 201.973 101.035C201.783 101.094 201.522 101.126 201.44 100.94C201.332 100.694 201.707 100.489 201.743 100.216C201.404 100.034 201.007 100.311 200.691 100.543C200.218 100.899 199.694 101.19 199.153 101.404C199.027 101.454 198.864 101.49 198.778 101.39C198.715 101.322 198.72 101.213 198.733 101.117C198.801 100.689 199.045 100.288 199.397 100.047C199.284 99.8924 199.049 99.9925 198.896 100.106C198.742 100.22 198.517 100.329 198.39 100.188C198.26 100.034 198.422 99.7967 198.431 99.5873C198.436 99.4006 198.3 99.2367 198.138 99.1639C197.975 99.091 197.786 99.091 197.61 99.1093C197.077 99.1639 196.554 99.3551 196.103 99.6602C195.552 100.038 195.115 100.58 194.546 100.926C194.443 100.99 194.303 101.044 194.208 100.971C194.064 100.858 194.19 100.603 194.118 100.43C194.036 100.238 193.752 100.247 193.59 100.38C193.427 100.512 193.337 100.712 193.197 100.867C192.8 101.295 192.069 101.213 191.654 100.812C191.51 100.675 191.392 100.498 191.37 100.298C191.325 99.8924 191.672 99.5509 192.02 99.3551C192.529 99.0637 193.116 98.9226 193.689 98.9408C194.312 98.9636 194.943 99.173 195.539 98.9818C196.202 98.7723 196.689 98.1122 197.371 97.9983C198.16 97.8709 198.837 98.5083 199.577 98.7996C200.412 99.132 201.197 98.9226 202.054 98.918C202.744 98.918 203.493 99.2914 203.935 99.8286H203.94Z" fill="white"/>
<path d="M155.099 64.6296C172.482 64.6296 186.574 56.4189 186.574 46.2903C186.574 36.1618 172.482 27.951 155.099 27.951C137.716 27.951 123.624 36.1618 123.624 46.2903C123.624 56.4189 137.716 64.6296 155.099 64.6296Z" fill="#E5872F"/>
<path d="M177.803 13.4817C165.264 6.17423 144.934 6.17423 132.395 13.4817C125.686 17.3927 122.568 22.5967 123.042 27.7142L129.864 108.329V108.333C130.157 111.862 132.612 115.336 137.237 118.031C147.104 123.782 163.103 123.782 172.971 118.031C177.595 115.336 180.05 111.862 180.343 108.333L187.165 27.7142C187.634 22.5967 184.521 17.3881 177.812 13.4817H177.803Z" fill="#F0F0F0"/>
<path opacity="0.1" d="M123.038 27.7189L129.86 108.329V108.338C130.004 110.1 130.694 111.853 131.922 113.497C133.149 115.145 134.922 116.688 137.232 118.036C140.977 120.217 145.606 121.569 150.447 122.092C146.301 120.185 143.156 117.08 142.994 112.062C142.885 108.73 142.682 102.624 142.434 95.4441C153.186 98.5082 166.528 97.4428 175.466 92.2388C178.588 90.4176 180.839 88.2822 182.229 86.0058L184.859 54.9091C183.357 57.4679 180.857 59.8673 177.356 61.907C167.633 67.5709 153.132 68.7501 141.406 65.4492C141.234 60.4774 140.855 50.1831 140.607 43.4129C137.647 42.5387 134.868 41.3823 132.395 39.939C126.566 36.5379 123.448 32.1626 123.038 27.7189Z" fill="black"/>
<path d="M155.099 45.4162C172.833 45.4162 187.21 37.0403 187.21 26.7081C187.21 16.3759 172.833 8 155.099 8C137.365 8 122.988 16.3759 122.988 26.7081C122.988 37.0403 137.365 45.4162 155.099 45.4162Z" fill="#FAFAFA" stroke="#E0E0E0" stroke-width="0.75" stroke-miterlimit="10"/>
<path d="M155.099 43.7315C171.934 43.7315 185.581 36.1099 185.581 26.7081C185.581 17.3062 171.934 9.68457 155.099 9.68457C138.264 9.68457 124.617 17.3062 124.617 26.7081C124.617 36.1099 138.264 43.7315 155.099 43.7315Z" fill="#E0E0E0"/>
<path d="M186.533 47.2419L183.871 78.5207C183.546 82.5455 180.744 86.5157 175.466 89.5935C164.217 96.1452 145.981 96.1452 134.732 89.5935C129.093 86.3063 126.282 81.9992 126.295 77.6921L123.678 47.3694C124.111 51.6993 127.166 55.9563 132.842 59.2617C145.137 66.419 165.066 66.419 177.356 59.2617C183.086 55.9244 186.145 51.6173 186.529 47.2419H186.533Z" fill="#E5872F"/>
<path opacity="0.2" d="M186.533 47.2419L183.871 78.5207C183.546 82.5455 180.744 86.5157 175.466 89.5935C164.217 96.1452 145.981 96.1452 134.732 89.5935C129.093 86.3063 126.282 81.9992 126.295 77.6921L123.678 47.3694C124.111 51.6993 127.166 55.9563 132.842 59.2617C145.137 66.419 165.066 66.419 177.356 59.2617C183.086 55.9244 186.145 51.6173 186.529 47.2419H186.533Z" fill="white"/>
<path opacity="0.8" d="M142.881 63.1909C139.235 62.2985 135.815 60.9918 132.842 59.2617C127.166 55.9563 124.111 51.6992 123.678 47.3694L126.295 77.6921C126.282 81.9991 129.093 86.3062 134.732 89.5935C137.453 91.1779 140.589 92.3799 143.932 93.1949L142.881 63.1909Z" fill="#E5872F"/>
<path d="M144.487 74.0816C145.62 73.0299 146.982 72.1011 148.444 71.4955C149.04 71.2496 149.089 70.38 148.512 70.0886C145.638 68.6499 141.59 69.6015 138.734 72.6155C135.721 75.798 135.093 80.1734 137.042 82.9644C137.286 83.315 137.81 83.3696 138.143 83.1055C139.682 81.8899 140.67 80.4512 141.681 78.1474C142.348 76.6312 143.273 75.2062 144.487 74.077V74.0816ZM150.998 72.5609C150.813 72.2103 150.357 72.0737 149.996 72.2285C147.284 73.3941 145.191 75.2881 143.765 78.029C143.048 79.404 142.574 80.9565 141.676 82.2359C141.004 83.1966 140.21 83.9342 139.316 84.4851C139.19 84.5625 139.24 84.8766 139.402 84.9449C142.258 86.197 146.147 85.2136 148.918 82.2906C151.715 79.3357 152.46 75.3519 150.998 72.5609Z" fill="white"/>
<path opacity="0.8" d="M138.143 83.1102C139.682 81.8945 140.67 80.4558 141.681 78.152C142.109 77.1685 142.651 76.2306 143.309 75.3838L143.115 69.8337C141.559 70.3255 140.025 71.2588 138.739 72.6202C135.725 75.8027 135.098 80.1781 137.047 82.969C137.291 83.3196 137.814 83.3742 138.148 83.1102H138.143Z" fill="#E6E6E6"/>
<path opacity="0.8" d="M143.422 78.7211C142.876 79.9094 142.421 81.166 141.672 82.2314C140.999 83.1921 140.205 83.9296 139.312 84.4806C139.186 84.558 139.235 84.8721 139.398 84.9404C140.675 85.5004 142.154 85.6097 143.652 85.3046L143.422 78.7211Z" fill="#E6E6E6"/>
<path d="M133.135 14.9933C138.969 11.5695 146.766 9.68457 155.094 9.68457C163.423 9.68457 171.22 11.5695 177.054 14.9933C182.545 18.2122 185.572 22.3737 185.572 26.7126C185.572 27.9419 185.329 29.1576 184.855 30.3368C183.659 27.3455 180.988 24.55 177.054 22.2416C171.22 18.8223 163.419 16.9374 155.094 16.9374C146.77 16.9374 138.969 18.8223 133.135 22.2416C129.196 24.55 126.53 27.3409 125.334 30.3368C124.86 29.1576 124.617 27.9419 124.617 26.7126C124.617 22.3782 127.644 18.2168 133.135 14.9933Z" fill="#EBEBEB"/>
<path d="M155.095 9.68457C163.423 9.68457 171.22 11.5695 177.058 14.9933C182.549 18.2122 185.577 22.3737 185.577 26.7126C185.577 27.9419 185.333 29.1576 184.859 30.3368C183.664 27.3455 180.993 24.55 177.058 22.2416C171.224 18.8223 163.423 16.9374 155.095 16.9374C154.576 16.9374 154.057 16.9465 153.542 16.9602C155.546 16.9374 159.769 15.913 158.348 13.1312C156.863 10.2218 153.105 9.71644 150.339 9.89856C151.9 9.76197 153.488 9.68912 155.099 9.68912L155.095 9.68457Z" fill="#E0E0E0"/>
<path d="M124.617 26.7126C124.617 22.8835 126.981 19.1865 131.317 16.1588C129.282 18.5537 130.428 22.8425 134.827 21.3219C134.841 21.3219 134.85 21.3173 134.863 21.3128C134.272 21.6087 133.695 21.9183 133.14 22.2461C129.201 24.5545 126.534 27.3454 125.339 30.3413C124.865 29.162 124.621 27.9464 124.621 26.7171L124.617 26.7126Z" fill="#E0E0E0"/>
<path d="M133.135 22.2416C138.969 18.8223 146.766 16.9374 155.095 16.9374C163.423 16.9374 171.22 18.8223 177.054 22.2416C180.988 24.5499 183.659 27.3409 184.855 30.3367C183.659 33.328 180.988 36.1235 177.054 38.4319C171.22 41.8511 163.423 43.7361 155.095 43.7361C146.766 43.7361 138.969 41.8511 133.135 38.4319C129.196 36.1235 126.53 33.3326 125.334 30.3367C126.53 27.3454 129.201 24.5499 133.135 22.2416Z" fill="#451F07"/>
<path d="M158.889 17.074C159.29 17.3199 159.633 17.6431 159.868 18.0574C160.279 18.7814 159.827 19.6783 160.247 20.3977C160.576 20.9622 161.145 21.586 162.174 21.8273C163.27 22.0823 164.917 22.2735 166.198 23.3707C166.5 23.6257 166.712 23.9945 166.798 24.3815C166.938 25.0053 166.658 25.6472 166.279 26.1572C165.9 26.6671 165.418 27.086 165.048 27.605C164.678 28.1195 164.429 28.7842 164.605 29.3943C164.768 29.9543 165.246 30.3504 165.729 30.6646C167.601 31.8848 169.88 32.3901 171.671 33.7287C172.176 34.1066 172.655 34.571 172.885 35.1629C173.246 36.0826 172.948 37.1707 172.325 37.9311C171.955 38.3864 171.369 39.0147 169.514 39.5474C168.856 39.7341 168.215 39.9435 167.547 40.0846C165.616 40.4944 163.302 42.393 161.551 43.34C167.403 42.6252 172.763 40.9451 177.058 38.4274C180.997 36.119 183.664 33.3281 184.859 30.3322C183.664 27.3409 180.993 24.5454 177.058 22.2371C172.118 19.3414 165.774 17.5521 158.889 17.0695V17.074ZM177.392 31.6435C177.527 31.5661 177.744 31.5661 177.875 31.6435C178.01 31.7209 178.01 31.8483 177.875 31.9257C177.739 32.0031 177.523 32.0031 177.392 31.9257C177.257 31.8483 177.257 31.7209 177.392 31.6435ZM174.342 35.518C174.757 35.2722 175.434 35.2722 175.849 35.518C176.264 35.7639 176.264 36.16 175.849 36.4013C175.434 36.6472 174.757 36.6472 174.342 36.4013C173.927 36.1554 173.927 35.7593 174.342 35.518ZM173.692 34.1203C173.828 34.0429 174.044 34.0429 174.18 34.1203C174.315 34.1977 174.315 34.3251 174.18 34.4025C174.044 34.4799 173.828 34.4799 173.692 34.4025C173.557 34.3251 173.557 34.1977 173.692 34.1203ZM173.386 29.754C174.044 29.367 175.109 29.367 175.768 29.754C176.427 30.141 176.427 30.7647 175.768 31.1517C175.109 31.5387 174.044 31.5387 173.386 31.1517C172.727 30.7647 172.727 30.141 173.386 29.754ZM168.341 23.6758C168.129 23.7987 167.786 23.7987 167.574 23.6758C167.362 23.5529 167.362 23.348 167.574 23.225C167.786 23.1021 168.129 23.1021 168.341 23.225C168.553 23.348 168.553 23.5529 168.341 23.6758ZM169.451 26.0251C168.792 25.6381 168.792 25.0144 169.451 24.6274C170.11 24.2404 171.175 24.2404 171.833 24.6274C172.492 25.0144 172.492 25.6381 171.833 26.0251C171.175 26.4121 170.11 26.4121 169.451 26.0251ZM170.259 30.8558C170.471 30.7329 170.814 30.7329 171.026 30.8558C171.238 30.9787 171.238 31.1836 171.026 31.3065C170.814 31.4295 170.471 31.4295 170.259 31.3065C170.047 31.1836 170.047 30.9787 170.259 30.8558ZM169.537 27.8509C170.29 28.2925 170.29 29.0073 169.537 29.4444C168.788 29.886 167.57 29.886 166.816 29.4444C166.063 29.0027 166.063 28.2879 166.816 27.8509C167.565 27.4092 168.783 27.4092 169.537 27.8509ZM164.321 21.0078C164.457 20.9304 164.673 20.9304 164.804 21.0078C164.939 21.0852 164.939 21.2126 164.804 21.29C164.669 21.3674 164.452 21.3674 164.321 21.29C164.186 21.2126 164.186 21.0852 164.321 21.0078Z" fill="#51250C"/>
<path d="M125.334 30.3367C126.53 33.328 129.201 36.1235 133.135 38.4319C138.247 41.4277 144.866 43.2444 152.031 43.6496C151.778 43.5175 151.53 43.3855 151.277 43.258C149.716 42.4658 148.074 41.7146 146.332 41.619C144.974 41.5416 143.373 41.7738 142.488 40.7266C142.1 40.2622 141.947 39.6384 141.581 39.1558C141.162 38.6095 140.508 38.3135 139.853 38.1223C138.125 37.6169 136.289 37.7353 134.511 37.4849C134.033 37.4166 133.492 37.2709 133.298 36.8247C133.104 36.374 133.37 35.8595 133.686 35.4816C134.002 35.1082 134.385 34.7486 134.48 34.2659C134.597 33.6331 134.168 33.0321 133.695 32.6041C133.221 32.1761 132.666 31.8028 132.395 31.22C132.025 30.4278 132.31 29.4535 132.856 28.7751C133.401 28.0967 134.168 27.6459 134.904 27.1906C136.289 26.3301 137.638 25.3831 138.793 24.2267C139.565 23.4527 140.278 22.2507 139.695 21.3264C139.452 20.9394 139.032 20.7072 138.613 20.5342C138.229 20.3749 137.832 20.2519 137.426 20.1609C135.91 20.7755 134.471 21.4721 133.14 22.2552C129.201 24.5636 126.534 27.3546 125.339 30.3504L125.334 30.3367ZM135.608 21.8728C136.266 21.4858 137.331 21.4858 137.99 21.8728C138.649 22.2598 138.649 22.8836 137.99 23.2706C137.331 23.6576 136.266 23.6576 135.608 23.2706C134.949 22.8836 134.949 22.2598 135.608 21.8728ZM133.618 24.4862C133.979 24.2768 134.556 24.2768 134.917 24.4862C135.274 24.6956 135.278 25.0371 134.917 25.2465C134.556 25.456 133.979 25.456 133.618 25.2465C133.262 25.0371 133.262 24.6956 133.618 24.4862ZM138.504 39.1649C138.91 38.9282 139.569 38.9282 139.975 39.1649C140.381 39.4017 140.381 39.7887 139.975 40.0254C139.569 40.2622 138.91 40.2622 138.504 40.0254C138.098 39.7887 138.098 39.4017 138.504 39.1649ZM136.727 38.7369C136.961 38.6004 137.34 38.6004 137.575 38.7369C137.81 38.8735 137.81 39.0966 137.575 39.2332C137.34 39.3698 136.961 39.3698 136.727 39.2332C136.492 39.0966 136.492 38.8735 136.727 38.7369ZM130.577 31.4067C130.388 31.5205 130.076 31.5205 129.882 31.4067C129.693 31.2929 129.693 31.1107 129.882 31.0015C130.072 30.8876 130.383 30.8876 130.577 31.0015C130.767 31.1153 130.767 31.2974 130.577 31.4067ZM129.562 33.155C130.419 32.6496 131.813 32.6496 132.671 33.155C133.528 33.6558 133.528 34.4754 132.671 34.9762C131.813 35.4816 130.419 35.4816 129.562 34.9762C128.705 34.4708 128.705 33.6558 129.562 33.155ZM128.456 28.1377C128.93 27.8599 129.693 27.8599 130.166 28.1377C130.64 28.4154 130.64 28.8616 130.166 29.1393C129.693 29.417 128.93 29.417 128.456 29.1393C127.983 28.8616 127.983 28.4154 128.456 28.1377ZM126.679 29.244C126.873 29.1302 127.18 29.1302 127.374 29.244C127.563 29.3579 127.563 29.54 127.374 29.6492C127.184 29.7631 126.873 29.7631 126.679 29.6492C126.489 29.5354 126.489 29.3533 126.679 29.244Z" fill="#5B280C"/>
<path opacity="0.1" d="M159.385 17.1105C166.076 17.6432 172.235 19.4143 177.058 22.2417C180.993 24.55 183.664 27.341 184.859 30.3368C183.664 33.3281 180.993 36.1236 177.058 38.432C175.605 39.2834 174.031 40.0391 172.361 40.6948C175.583 38.819 178.831 35.987 178.845 32.2172C178.872 24.7412 169.948 18.2897 159.394 17.115L159.385 17.1105Z" fill="black"/>
<path d="M77.7272 160.182C95.5911 160.182 117.538 151.745 117.538 141.337C117.538 130.929 103.056 122.492 85.1925 122.492C67.3285 122.492 45.3816 130.929 45.3816 141.337C45.3816 151.745 59.8632 160.182 77.7272 160.182Z" fill="#C7DDEF"/>
<path d="M176.691 164.492C196.745 164.492 217.882 155.492 217.882 137.492C217.882 121.492 206.435 116.492 186.382 116.492C166.328 116.492 148.882 126.492 140.382 134.992C140.382 150.456 156.638 164.492 176.691 164.492Z" fill="#C7DDEF"/>
<path d="M154.765 117.012C168.765 108.857 191.46 108.857 205.456 117.012C212.449 121.087 215.946 126.427 215.951 131.768C215.951 132.824 215.951 137.063 215.951 138.133C215.928 143.46 212.431 148.782 205.456 152.848C191.456 161.002 168.761 161.002 154.765 152.848C147.763 148.768 144.266 143.419 144.271 138.074C144.271 137.022 144.271 132.847 144.271 131.795C144.262 126.445 147.758 121.096 154.765 117.012Z" fill="#E5872F"/>
<path d="M194.443 112.641C198.44 113.656 202.185 115.108 205.456 117.016C212.449 121.091 215.946 126.432 215.951 131.772C215.951 132.829 215.951 137.067 215.951 138.137C215.928 143.464 212.431 148.787 205.456 152.852C202.185 154.756 198.44 156.213 194.443 157.228V112.645V112.641Z" fill="#BC6924"/>
<path d="M180.113 152.666C199.91 152.666 215.96 143.315 215.96 131.781C215.96 120.247 199.91 110.897 180.113 110.897C160.315 110.897 144.266 120.247 144.266 131.781C144.266 143.315 160.315 152.666 180.113 152.666Z" fill="#F9913D"/>
<path d="M148.061 129.5H148.056L149.234 118.81H149.243C149.685 114.794 152.681 110.851 158.239 107.783C170.322 101.113 189.913 101.113 201.995 107.783C207.554 110.851 210.55 114.794 210.992 118.81H211.001L212.201 129.5H212.197C212.711 134.322 209.643 139.235 202.97 142.918C190.585 149.752 169.681 149.752 157.296 142.918C150.623 139.235 147.555 134.322 148.07 129.5H148.061Z" fill="#E5872F"/>
<path d="M201.991 107.783C207.549 110.851 210.545 114.794 210.988 118.81H210.997L212.197 129.5H212.192C212.707 134.322 209.638 139.235 202.965 142.918C200.434 144.316 197.547 145.422 194.447 146.246L193.698 133.53L192.218 104.14C195.769 104.974 199.094 106.185 201.991 107.783Z" fill="#BC6924"/>
<path d="M180.113 136.935C197.199 136.935 211.051 129.289 211.051 119.857C211.051 110.425 197.199 102.779 180.113 102.779C163.026 102.779 149.175 110.425 149.175 119.857C149.175 129.289 163.026 136.935 180.113 136.935Z" fill="#F9913D"/>
<path d="M180.113 133.257C194.842 133.257 206.782 127.257 206.782 119.857C206.782 112.457 194.842 106.458 180.113 106.458C165.384 106.458 153.443 112.457 153.443 119.857C153.443 127.257 165.384 133.257 180.113 133.257Z" fill="#BC6924"/>
<path d="M161.253 117.33C171.667 112.099 188.555 112.099 198.968 117.33C202.402 119.056 204.694 121.132 205.862 123.331C204.694 125.53 202.397 127.606 198.968 129.332C188.555 134.563 171.667 134.563 161.253 129.332C157.82 127.606 155.528 125.53 154.359 123.331C155.528 121.132 157.824 119.056 161.253 117.33Z" fill="#E5872F"/>
<path d="M157.504 114.193L188.929 132.505C192.597 131.859 196.04 130.802 198.968 129.332C203.805 126.905 206.399 123.768 206.742 120.586C206.404 117.403 203.809 114.271 198.968 111.835C188.555 106.604 171.671 106.604 161.253 111.835C159.8 112.563 158.551 113.36 157.504 114.193Z" fill="#E5872F"/>
<path d="M155.537 121.596L175.141 133.024C179.725 133.457 184.489 133.284 188.929 132.505L157.504 114.193L155.537 121.596Z" fill="#BC6924"/>
<path opacity="0.5" d="M156.24 129.582L160.775 132.223C161.204 132.473 161.953 132.442 162.444 132.155C162.941 131.868 162.99 131.431 162.566 131.18L158.032 128.54C157.603 128.289 156.854 128.321 156.362 128.608C155.866 128.895 155.816 129.332 156.24 129.582Z" fill="black"/>
<path d="M153.488 120.64C154.472 126.422 160.852 129.323 165.819 130.98C176.779 134.363 192.823 133.903 202.397 127.042C205.925 124.437 208.122 120.203 205.682 116.042C208.253 120.199 206.133 124.579 202.568 127.269C193.021 134.372 176.729 134.868 165.715 131.312C160.68 129.555 154.368 126.555 153.488 120.64Z" fill="#E5872F"/>
<path d="M77.8467 97.1653C95.2298 97.1653 109.322 88.9545 109.322 78.826C109.322 68.6975 95.2298 60.4867 77.8467 60.4867C60.4637 60.4867 46.3719 68.6975 46.3719 78.826C46.3719 88.9545 60.4637 97.1653 77.8467 97.1653Z" fill="#BC6524"/>
<path d="M100.551 46.0128C88.0121 38.7054 67.6816 38.7054 55.1431 46.0128C48.434 49.9238 45.3163 55.1279 45.79 60.2454L52.612 140.86V140.865C52.9052 144.393 55.3597 147.867 59.9844 150.562C69.8518 156.313 85.8509 156.313 95.7184 150.562C100.343 147.867 102.797 144.393 103.091 140.865L109.913 60.2454C110.382 55.1279 107.269 49.9193 100.56 46.0128H100.551Z" fill="#F0F0F0"/>
<path opacity="0.1" d="M100.551 46.0128C90.2139 39.9938 74.5938 38.9376 62.3982 42.8394C62.3892 42.8394 62.3847 42.844 62.3757 42.8485C61.356 43.1764 60.3589 43.5406 59.3888 43.9367C59.2895 43.9777 59.1858 44.0186 59.0865 44.0596C58.8654 44.1507 58.6489 44.2508 58.4278 44.3465C58.2383 44.4284 58.0533 44.5149 57.8683 44.6014C57.6878 44.6834 57.5073 44.7699 57.3314 44.8564C57.0968 44.9702 56.8667 45.0886 56.6366 45.2024C56.5012 45.2707 56.3613 45.3436 56.226 45.4119C55.856 45.6076 55.4951 45.808 55.1386 46.0128C48.4295 49.9238 45.3118 55.1279 45.7855 60.2454L52.6075 140.86V140.865C52.9007 144.393 55.3552 147.867 59.9799 150.562C63.7247 152.743 68.3539 154.095 73.1951 154.624C69.0532 152.716 65.9039 149.611 65.7415 144.593C65.6332 141.261 65.4302 135.155 65.182 127.975C75.9293 131.039 89.2754 129.974 98.2089 124.77C101.336 122.949 103.583 120.813 104.972 118.537L107.603 87.4402C106.096 89.9989 103.596 92.3983 100.099 94.4381C90.3763 100.102 75.8752 101.277 64.1533 97.9802C63.9097 90.905 63.7021 84.9634 63.5939 81.8355C76.6918 85.1409 92.4834 83.6794 103.19 77.4419C105.419 76.1443 107.291 74.7147 108.812 73.1985L109.908 60.2499C110.377 55.1324 107.264 49.9238 100.555 46.0174L100.551 46.0128Z" fill="black"/>
<path d="M77.8468 77.9518C95.5812 77.9518 109.958 69.5759 109.958 59.2437C109.958 48.9115 95.5812 40.5356 77.8468 40.5356C60.1124 40.5356 45.7358 48.9115 45.7358 59.2437C45.7358 69.5759 60.1124 77.9518 77.8468 77.9518Z" fill="#E0E0E0"/>
<path d="M103.194 37.4943C89.1942 29.34 66.4995 29.34 52.5036 37.4943C45.5102 41.5692 42.0135 46.9098 42.009 52.2504C42.009 53.3067 42.009 57.5455 42.009 58.6154C42.0316 63.9424 45.5283 69.2648 52.5036 73.3306C66.504 81.4849 89.1987 81.4849 103.194 73.3306C110.197 69.2511 113.694 63.9014 113.689 58.5563C113.689 57.5045 113.689 53.3295 113.689 52.2777C113.698 46.928 110.201 41.5783 103.194 37.4943Z" fill="#E5872F"/>
<path opacity="0.2" d="M103.194 37.4943C89.1942 29.34 66.4995 29.34 52.5036 37.4943C45.5102 41.5692 42.0135 46.9098 42.009 52.2504C42.009 53.3067 42.009 57.5455 42.009 58.6154C42.0316 63.9424 45.5283 69.2648 52.5036 73.3306C66.504 81.4849 89.1987 81.4849 103.194 73.3306C110.197 69.2511 113.694 63.9014 113.689 58.5563C113.689 57.5045 113.689 53.3295 113.689 52.2777C113.698 46.928 110.201 41.5783 103.194 37.4943Z" fill="black"/>
<path opacity="0.2" d="M63.5171 33.1189C59.5196 34.1342 55.7747 35.5866 52.5036 37.4943C45.5102 41.5692 42.0135 46.9098 42.009 52.2504C42.009 53.3067 42.009 57.5455 42.009 58.6154C42.0316 63.9424 45.5283 69.2648 52.5036 73.3306C55.7747 75.2337 59.5196 76.6907 63.5171 77.706V33.1189Z" fill="black"/>
<path d="M77.8468 73.1439C97.6444 73.1439 113.694 63.7936 113.694 52.2595C113.694 40.7254 97.6444 31.3751 77.8468 31.3751C58.0492 31.3751 42 40.7254 42 52.2595C42 63.7936 58.0492 73.1439 77.8468 73.1439Z" fill="#E5872F"/>
<path d="M109.899 49.983H109.904L108.726 39.2926H108.717C108.275 35.2769 105.279 31.3341 99.7203 28.2654C87.6375 21.5953 68.047 21.5953 55.9642 28.2654C50.4056 31.3341 47.4097 35.2769 46.9676 39.2926H46.9585L45.7584 49.983H45.7629C45.2485 54.8 48.3166 59.7172 54.9897 63.4005C67.3747 70.2345 88.2782 70.2345 100.663 63.4005C107.336 59.7172 110.404 54.8045 109.89 49.983H109.899Z" fill="#E5872F"/>
<path opacity="0.2" d="M109.899 49.983H109.904L108.726 39.2926H108.717C108.275 35.2769 105.279 31.3341 99.7203 28.2654C87.6375 21.5953 68.047 21.5953 55.9642 28.2654C50.4056 31.3341 47.4097 35.2769 46.9676 39.2926H46.9585L45.7584 49.983H45.7629C45.2485 54.8 48.3166 59.7172 54.9897 63.4005C67.3747 70.2345 88.2782 70.2345 100.663 63.4005C107.336 59.7172 110.404 54.8045 109.89 49.983H109.899Z" fill="black"/>
<path opacity="0.2" d="M55.9687 28.2654C50.4101 31.3341 47.4142 35.277 46.9721 39.2927H46.9631L45.7629 49.983H45.7674C45.2531 54.8 48.3211 59.7172 54.9942 63.4006C57.5253 64.7983 60.4129 65.9047 63.5126 66.7288L64.2616 54.0124L65.7415 24.623C62.1906 25.4562 58.8654 26.6673 55.9687 28.2654Z" fill="black"/>
<path d="M77.8468 57.418C94.9333 57.418 108.785 49.7718 108.785 40.3398C108.785 30.9079 94.9333 23.2617 77.8468 23.2617C60.7603 23.2617 46.9089 30.9079 46.9089 40.3398C46.9089 49.7718 60.7603 57.418 77.8468 57.418Z" fill="#E5872F"/>
<path d="M77.8468 53.7392C92.576 53.7392 104.516 47.7401 104.516 40.3399C104.516 32.9396 92.576 26.9406 77.8468 26.9406C63.1175 26.9406 51.1771 32.9396 51.1771 40.3399C51.1771 47.7401 63.1175 53.7392 77.8468 53.7392Z" fill="#E5872F"/>
<path opacity="0.2" d="M77.8468 53.7392C92.576 53.7392 104.516 47.7401 104.516 40.3399C104.516 32.9396 92.576 26.9406 77.8468 26.9406C63.1175 26.9406 51.1771 32.9396 51.1771 40.3399C51.1771 47.7401 63.1175 53.7392 77.8468 53.7392Z" fill="black"/>
<path d="M96.7064 37.8129C86.293 32.5816 69.4051 32.5816 58.9917 37.8129C55.5581 39.5385 53.2661 41.6146 52.0975 43.8137C53.2661 46.0128 55.5626 48.0889 58.9917 49.8145C69.4051 55.0458 86.293 55.0458 96.7064 49.8145C100.14 48.0889 102.432 46.0128 103.601 43.8137C102.432 41.6146 100.135 39.5385 96.7064 37.8129Z" fill="#E5872F"/>
<path opacity="0.1" d="M96.7064 37.8129C86.293 32.5816 69.4051 32.5816 58.9917 37.8129C55.5581 39.5385 53.2661 41.6146 52.0975 43.8137C53.2661 46.0128 55.5626 48.0889 58.9917 49.8145C69.4051 55.0458 86.293 55.0458 96.7064 49.8145C100.14 48.0889 102.432 46.0128 103.601 43.8137C102.432 41.6146 100.135 39.5385 96.7064 37.8129Z" fill="white"/>
<path d="M100.456 34.6715L69.0306 52.9834C65.3625 52.3369 61.9199 51.2806 58.9917 49.81C54.155 47.3833 51.5607 44.2463 51.2178 41.0638C51.5562 37.8813 54.1505 34.7489 58.9917 32.313C69.4051 27.0817 86.2885 27.0817 96.7064 32.313C98.1592 33.0415 99.409 33.8383 100.456 34.6715Z" fill="#E5872F"/>
<path opacity="0.2" d="M100.456 34.6715L69.0306 52.9834C65.3625 52.3369 61.9199 51.2806 58.9917 49.81C54.155 47.3833 51.5607 44.2463 51.2178 41.0638C51.5562 37.8813 54.1505 34.7489 58.9917 32.313C69.4051 27.0817 86.2885 27.0817 96.7064 32.313C98.1592 33.0415 99.409 33.8383 100.456 34.6715Z" fill="white"/>
<path d="M102.423 42.0791L82.8189 53.507C78.2349 53.9396 73.4703 53.7666 69.0306 52.988L100.456 34.676L102.423 42.0791Z" fill="#E5872F"/>
<path opacity="0.1" d="M102.423 42.0791L82.8189 53.507C78.2349 53.9396 73.4703 53.7666 69.0306 52.988L100.456 34.676L102.423 42.0791Z" fill="black"/>
<path opacity="0.5" d="M101.715 50.0605L97.1801 52.7012C96.7515 52.9516 96.0025 52.9197 95.5107 52.6329C95.0144 52.346 94.9648 51.9089 95.3889 51.6585L99.9234 49.0178C100.352 48.7674 101.101 48.7993 101.593 49.0861C102.089 49.373 102.139 49.81 101.715 50.0605Z" fill="black"/>
<path d="M109.281 79.7729L106.619 111.052C106.294 115.077 103.492 119.047 98.2134 122.125C86.9653 128.676 68.7283 128.676 57.4802 122.125C51.8404 118.837 49.0295 114.53 49.043 110.223L46.4261 79.9004C46.8593 84.2303 49.9138 88.4873 55.5898 91.7927C67.8846 98.95 87.8135 98.95 100.104 91.7927C105.834 88.4554 108.893 84.1483 109.276 79.7729H109.281Z" fill="#E5872F"/>
<path d="M94.8791 105.707C96.0928 104.582 97.5456 103.589 99.1067 102.943C99.7474 102.679 99.7925 101.75 99.1789 101.44C96.1063 99.9015 91.7839 100.921 88.7294 104.145C85.5079 107.546 84.8357 112.222 86.9201 115.204C87.1818 115.577 87.7413 115.637 88.0977 115.354C89.7446 114.057 90.7958 112.518 91.8787 110.055C92.5916 108.434 93.5797 106.913 94.8791 105.707ZM101.836 104.081C101.638 103.708 101.151 103.558 100.763 103.726C97.8659 104.969 95.628 106.995 94.103 109.923C93.336 111.393 92.8307 113.05 91.8742 114.416C91.1523 115.441 90.3086 116.228 89.352 116.82C89.2167 116.907 89.2708 117.239 89.4468 117.312C92.4968 118.651 96.6567 117.599 99.612 114.476C102.599 111.32 103.397 107.063 101.836 104.077V104.081Z" fill="#F0F0F0"/>
<path d="M65.6287 95.7219C61.9831 94.8295 58.5631 93.5228 55.5898 91.7927C49.9138 88.4873 46.8593 84.2302 46.4261 79.9004L49.043 110.223C49.0295 114.53 51.8404 118.837 57.4802 122.124C60.2009 123.709 63.3366 124.911 66.6799 125.726L65.6287 95.7219Z" fill="#E5872F"/>
<path d="M139.497 138.001C136.984 136.63 134.48 135.246 131.917 133.976C130.482 133.266 129.066 132.514 127.581 131.918C126.205 131.367 124.712 131.089 123.263 130.789C120.267 130.17 117.213 129.782 114.154 129.874C109.592 130.006 105.085 130.802 100.555 131.299C99.9144 131.367 99.2692 131.431 98.624 131.403C99.6527 130.798 100.582 130.015 101.363 129.09C102.049 128.28 102.635 127.351 103.483 126.727C104.494 125.985 105.757 125.762 106.971 125.507C107.503 125.398 108.049 125.271 108.482 124.924C109.471 124.137 109.886 123.131 111.235 122.844C112.39 122.598 113.667 122.939 114.727 122.407C115.223 122.156 115.62 121.737 116.089 121.441C117.425 120.595 118.715 121.164 120.132 121.287C121.147 121.378 122.176 120.936 123.169 121.177C123.782 121.328 124.319 121.724 124.942 121.833C125.74 121.974 126.562 121.624 127.356 121.792C128.605 122.056 129.395 123.509 130.654 123.741C131.087 123.818 131.534 123.741 131.962 123.832C133.126 124.069 133.781 125.384 134.827 125.958C135.472 126.313 136.262 126.377 136.835 126.846C137.557 127.442 137.719 128.494 138.193 129.318C138.586 130.001 139.199 130.538 139.524 131.258C140.463 133.325 138.698 135.865 139.502 137.996L139.497 138.001Z" fill="#E5872F"/>
<path opacity="0.1" d="M139.497 138.001C136.984 136.63 134.48 135.246 131.917 133.976C130.482 133.266 129.066 132.514 127.581 131.918C126.205 131.367 124.712 131.089 123.263 130.789C120.267 130.17 117.213 129.782 114.154 129.874C109.592 130.006 105.085 130.802 100.555 131.299C99.9144 131.367 99.2692 131.431 98.624 131.403C99.6527 130.798 100.582 130.015 101.363 129.09C102.049 128.28 102.635 127.351 103.483 126.727C104.494 125.985 105.757 125.762 106.971 125.507C107.503 125.398 108.049 125.271 108.482 124.924C109.471 124.137 109.886 123.131 111.235 122.844C112.39 122.598 113.667 122.939 114.727 122.407C115.223 122.156 115.62 121.737 116.089 121.441C117.425 120.595 118.715 121.164 120.132 121.287C121.147 121.378 122.176 120.936 123.169 121.177C123.782 121.328 124.319 121.724 124.942 121.833C125.74 121.974 126.562 121.624 127.356 121.792C128.605 122.056 129.395 123.509 130.654 123.741C131.087 123.818 131.534 123.741 131.962 123.832C133.126 124.069 133.781 125.384 134.827 125.958C135.472 126.313 136.262 126.377 136.835 126.846C137.557 127.442 137.719 128.494 138.193 129.318C138.586 130.001 139.199 130.538 139.524 131.258C140.463 133.325 138.698 135.865 139.502 137.996L139.497 138.001Z" fill="black"/>
<path opacity="0.1" d="M131.917 133.976C134.48 135.246 136.984 136.63 139.497 138.001C138.766 136.066 140.151 133.789 139.705 131.836C139.569 132.428 139.38 132.997 139.145 133.507C139.086 133.634 138.929 133.73 138.807 133.662C138.735 133.621 138.698 133.543 138.662 133.47C138.292 132.683 137.931 131.95 137.381 131.276C136.763 130.52 135.716 130.229 135.102 129.414C134.638 128.795 134.408 128.021 133.997 127.36C133.379 126.372 132.332 125.689 131.213 125.539C130.067 125.384 128.804 125.735 127.811 125.111C127.207 124.733 126.823 124.046 126.205 123.691C124.937 122.967 123.394 123.927 121.95 123.85C121.007 123.8 120.141 123.299 119.212 123.108C118.345 122.93 117.429 123.04 116.622 123.408C115.999 123.695 115.431 124.137 114.758 124.269C113.63 124.492 112.444 123.795 111.334 124.123C110.26 124.442 109.597 125.635 108.532 125.972C107.783 126.208 106.957 125.985 106.195 126.168C105.459 126.341 104.855 126.869 104.282 127.379C103.019 128.503 101.457 129.814 100.343 131.321C100.411 131.312 100.483 131.308 100.551 131.299C105.08 130.807 109.588 130.01 114.149 129.874C117.208 129.783 120.258 130.174 123.259 130.789C124.707 131.089 126.205 131.367 127.577 131.918C129.061 132.514 130.478 133.261 131.913 133.976H131.917Z" fill="black"/>
<path d="M97.8434 131.963C97.5141 131.918 96.7741 131.781 97.1576 131.267C97.2614 131.13 97.4148 131.053 97.5682 130.984C98.7052 130.488 99.8783 130.679 100.984 129.978C102.319 129.136 103.244 127.602 104.738 127.119C106.181 126.655 107.891 127.274 109.177 126.454C109.728 126.104 110.12 125.525 110.693 125.216C111.857 124.588 113.27 125.257 114.578 125.138C115.792 125.029 116.861 124.242 118.066 124.068C119.555 123.859 121.034 124.61 122.532 124.537C123.602 124.483 124.752 124.028 125.695 124.56C126.318 124.915 126.701 125.639 127.342 125.949C127.974 126.254 128.705 126.099 129.395 126.099C130.834 126.104 132.251 126.878 133.077 128.107C133.514 128.753 133.789 129.514 134.29 130.11C134.773 130.684 135.427 131.062 136.005 131.526C138.225 133.302 139.109 137.117 140.038 139.863C138.915 138.816 134.593 136.421 133.189 135.847C123.385 131.868 115.837 130.297 105.387 131.508C102.874 131.799 100.343 132.3 97.8344 131.954L97.8434 131.963Z" fill="#E5872F"/>
<path opacity="0.1" d="M139.917 139.758C138.802 137.714 136.785 136.157 134.737 135.028C134.254 134.759 133.803 134.467 133.311 134.217C132.86 133.985 132.418 133.689 132.147 133.229C132.052 133.065 131.98 132.883 131.976 132.692C131.976 132.446 132.089 132.218 132.201 132.004C132.395 131.645 132.603 131.29 132.824 130.944C132.959 130.73 133.212 130.133 132.765 130.078C132.639 130.065 132.513 130.119 132.4 130.179C131.691 130.547 131.055 131.062 130.347 131.431C129.724 131.754 128.989 131.972 128.29 131.809C127.662 131.663 127.125 131.007 126.805 130.452C126.386 129.728 126.142 128.913 125.79 128.153C125.578 127.697 125.28 127.224 124.811 127.092C124.73 127.069 124.635 127.055 124.563 127.101C124.482 127.151 124.445 127.256 124.432 127.351C124.373 127.756 124.558 128.153 124.685 128.544C124.784 128.845 124.847 129.159 124.879 129.477C124.91 129.823 124.897 130.197 124.707 130.484C124.522 130.766 124.188 130.921 123.854 130.944C123.141 130.989 122.465 130.443 121.86 130.11C120.913 129.587 119.979 129.036 119.063 128.453C118.287 127.957 117.448 127.278 116.554 127.033C116.324 126.969 115.999 126.992 115.945 127.233C115.904 127.406 116.04 127.561 116.162 127.684C116.5 128.021 116.838 128.362 117.177 128.699C117.38 128.899 117.596 129.141 117.592 129.432C117.587 129.673 117.42 129.878 117.231 130.015C116.766 130.347 116.162 130.356 115.602 130.297C114.664 130.197 113.73 129.937 112.877 129.514C112.502 129.327 112.214 129.031 111.844 128.826C111.384 128.571 110.928 128.307 110.459 128.066C110.206 127.934 109.886 127.711 109.588 127.743C108.356 127.884 111.537 130.078 110.26 130.406C108.974 130.734 107.485 129.755 106.308 129.332C106.087 129.25 104.53 128.754 104.828 129.559C104.864 129.65 104.932 129.719 104.999 129.787C105.153 129.933 105.311 130.065 105.482 130.192C105.568 130.256 105.658 130.329 105.672 130.434C105.685 130.529 105.622 130.625 105.545 130.675C105.464 130.725 105.369 130.743 105.279 130.761C103.894 130.998 102.477 131.048 101.083 131.171C99.8106 131.285 98.5292 131.303 97.2569 131.162C97.2208 131.194 97.1847 131.226 97.1576 131.267C96.7741 131.786 97.5141 131.918 97.8434 131.963C100.352 132.309 102.883 131.809 105.396 131.517C115.846 130.306 123.394 131.877 133.198 135.856C134.557 136.407 138.631 138.661 139.921 139.758H139.917Z" fill="black"/>
<path d="M142.926 143.874C142.98 143.942 143.034 144.01 143.088 144.083H144.938C144.307 142.963 143.422 141.962 142.543 141.083C141.451 139.99 140.232 139.034 138.96 138.187C136.239 136.375 133.235 135.009 130.194 133.898C126.954 132.715 123.593 131.859 120.191 131.399C116.662 130.921 113.116 130.871 109.57 131.135C107.341 131.299 105.112 131.535 102.879 131.677C101.755 131.745 100.636 131.809 99.5128 131.863C98.7007 131.904 97.9111 131.886 97.1621 131.503C97.0493 131.444 97.0313 131.654 97.0899 131.717C97.681 132.3 98.4345 132.382 99.2105 132.455C100.163 132.542 101.124 132.555 102.08 132.564C103.925 132.583 105.78 132.446 107.625 132.364C111.266 132.205 114.903 132.118 118.53 132.555C125.059 133.338 131.637 135.374 137.277 138.948C138.68 139.835 140.011 140.842 141.216 142.003C141.825 142.59 142.38 143.227 142.926 143.878V143.874Z" fill="#E5872F"/>
<path opacity="0.3" d="M142.926 143.874C142.98 143.942 143.034 144.01 143.088 144.083H144.938C144.307 142.963 143.422 141.962 142.543 141.083C141.451 139.99 140.232 139.034 138.96 138.187C136.239 136.375 133.235 135.009 130.194 133.898C126.954 132.715 123.593 131.859 120.191 131.399C116.662 130.921 113.116 130.871 109.57 131.135C107.341 131.299 105.112 131.535 102.879 131.677C101.755 131.745 100.636 131.809 99.5128 131.863C98.7007 131.904 97.9111 131.886 97.1621 131.503C97.0493 131.444 97.0313 131.654 97.0899 131.717C97.681 132.3 98.4345 132.382 99.2105 132.455C100.163 132.542 101.124 132.555 102.08 132.564C103.925 132.583 105.78 132.446 107.625 132.364C111.266 132.205 114.903 132.118 118.53 132.555C125.059 133.338 131.637 135.374 137.277 138.948C138.68 139.835 140.011 140.842 141.216 142.003C141.825 142.59 142.38 143.227 142.926 143.878V143.874Z" fill="white"/>
<path opacity="0.1" d="M102.062 130.165C102.161 130.597 102.951 130.402 103.226 130.356C103.447 130.32 103.7 130.242 103.79 130.028C103.853 129.874 103.813 129.691 103.849 129.528C103.885 129.364 104.088 129.213 104.201 129.336C104.241 128.867 104.711 128.544 105.157 128.521C105.608 128.499 106.037 128.699 106.448 128.895C106.858 129.09 107.287 129.295 107.738 129.277C107.806 129.277 107.878 129.268 107.936 129.227C108.099 129.118 108.058 128.858 107.946 128.694C107.833 128.53 107.67 128.403 107.612 128.212C107.837 128.039 108.158 128.189 108.37 128.38C108.582 128.571 108.789 128.813 109.069 128.826C109.295 128.489 108.713 128.021 108.907 127.661C109.001 127.492 109.218 127.456 109.407 127.46C110.928 127.492 112.209 128.722 113.716 128.931C113.779 128.94 113.847 128.945 113.91 128.927C114.145 128.849 114.109 128.476 113.96 128.266C113.811 128.057 113.59 127.861 113.603 127.602C114.348 127.297 115.002 128.585 115.783 128.394C115.85 128.166 115.683 127.943 115.521 127.775C114.758 126.992 113.82 126.4 112.805 126.054C112.457 125.935 112.083 125.844 111.726 125.931C111.469 125.994 111.239 126.145 111.014 126.281C109.877 126.964 108.591 127.379 107.282 127.492C106.389 127.57 105.469 127.511 104.629 127.825C104.07 128.039 103.583 128.417 103.127 128.813C102.843 129.063 102.012 129.641 102.049 130.097C102.049 130.119 102.048 130.138 102.058 130.156L102.062 130.165Z" fill="white"/>
<path opacity="0.1" d="M116.635 125.252C116.541 125.325 116.446 125.421 116.441 125.539C116.441 125.667 116.536 125.767 116.626 125.849C117.258 126.413 117.984 126.841 118.706 127.265C118.923 127.392 119.234 127.501 119.383 127.297C119.582 127.023 119.18 126.668 119.212 126.331C119.676 126.204 120.087 126.65 120.407 127.023C120.89 127.588 121.45 128.084 122.054 128.499C122.194 128.594 122.379 128.685 122.519 128.585C122.614 128.517 122.641 128.385 122.65 128.262C122.686 127.72 122.492 127.165 122.131 126.768C122.307 126.609 122.569 126.8 122.726 126.978C122.884 127.16 123.133 127.356 123.322 127.215C123.525 127.06 123.39 126.727 123.439 126.468C123.484 126.24 123.692 126.076 123.913 126.031C124.134 125.985 124.36 126.04 124.572 126.108C125.208 126.322 125.799 126.7 126.264 127.201C126.832 127.816 127.22 128.599 127.82 129.177C127.929 129.282 128.082 129.386 128.217 129.323C128.425 129.222 128.339 128.881 128.479 128.69C128.628 128.476 128.975 128.571 129.133 128.776C129.296 128.981 129.35 129.254 129.481 129.477C129.851 130.115 130.767 130.21 131.38 129.837C131.592 129.71 131.782 129.523 131.863 129.286C132.025 128.804 131.696 128.289 131.326 127.952C130.78 127.456 130.108 127.119 129.395 126.987C128.628 126.841 127.798 126.923 127.121 126.527C126.368 126.09 125.948 125.148 125.145 124.82C124.215 124.442 123.218 125.038 122.235 125.193C121.129 125.366 120.222 124.893 119.176 124.651C118.332 124.456 117.312 124.71 116.631 125.248L116.635 125.252Z" fill="white"/>
<path d="M132.941 135.856C132.264 135.346 131.574 134.864 130.762 134.668C130.153 134.522 129.512 134.554 128.894 134.445C127.902 134.267 127.008 133.739 126.038 133.466C125.154 133.215 124.211 133.188 123.313 133.379C122.893 133.47 122.478 133.607 122.05 133.639C121.612 133.675 121.174 133.598 120.741 133.525C119.32 133.293 117.804 133.106 116.477 133.671C115.449 134.108 114.668 134.936 113.761 135.565C112.927 136.143 112.02 135.838 111.095 136.143C109.254 136.749 109.213 139.312 107.526 140.209C106.669 140.664 105.987 140.91 105.374 141.739C104.873 142.417 104.598 143.268 104.043 143.897C103.515 144.489 102.775 144.698 102.148 145.149C101.196 145.827 100.772 146.961 100.221 147.944C99.6482 148.964 98.6375 149.647 98.0961 150.69C98.0555 150.772 98.0149 150.863 98.0149 150.954C98.0194 151.104 98.1412 151.227 98.2766 151.286C98.9669 151.578 99.7881 151.295 100.501 151.268C103.551 151.163 105.857 154.022 108.839 153.972C109.484 153.963 110.129 153.786 110.761 153.9C111.23 153.981 111.654 154.218 112.069 154.455C113.477 155.261 114.961 156.158 116.577 156.071C118.03 155.994 119.37 155.12 120.827 155.124C122.036 155.124 123.376 155.712 124.378 155.024C124.829 154.71 125.109 154.186 125.569 153.881C126.367 153.349 127.468 153.626 128.344 153.239C129.404 152.775 129.878 151.482 130.866 150.881C131.655 150.398 132.657 150.426 133.474 150.002C134.498 149.479 134.877 148.413 135.694 147.689C136.483 146.988 137.53 146.669 138.342 145.991C138.816 145.595 139.19 145.094 139.637 144.675C140.264 144.088 141.022 143.664 141.803 143.318C142.042 143.214 142.326 143.041 142.29 142.781C142.276 142.69 142.222 142.608 142.173 142.531C141.554 141.634 140.9 140.646 140.043 139.972C139.204 139.307 138.54 138.379 137.539 137.928C136.772 137.582 135.91 137.532 135.125 137.231C134.326 136.926 133.641 136.371 132.946 135.847L132.941 135.856Z" fill="#E5872F"/>
<path opacity="0.1" d="M107.743 142.745C107.837 142.754 107.937 142.754 108.031 142.745C108.09 142.745 108.158 142.731 108.198 142.686C108.243 142.626 108.23 142.54 108.18 142.481C108.135 142.422 108.063 142.39 108 142.358C107.706 142.208 107.246 141.912 107.291 141.543C107.332 141.224 107.693 140.937 107.977 140.855C108.451 140.71 108.961 140.846 109.444 140.965C110.075 141.115 110.711 141.233 111.357 141.32C111.582 141.352 111.889 141.324 111.943 141.101C111.993 140.901 111.79 140.742 111.632 140.61C111.474 140.477 111.352 140.209 111.514 140.09C111.582 140.04 111.668 140.045 111.754 140.045C112.354 140.072 112.949 140.145 113.54 140.259C113.721 140.295 113.906 140.332 114.086 140.295C114.267 140.259 114.438 140.122 114.456 139.936C114.465 139.84 114.434 139.744 114.393 139.658C114.167 139.18 113.703 138.866 113.306 138.52C112.909 138.174 112.53 137.696 112.593 137.167C113.274 136.557 114.348 136.721 115.169 137.127C115.986 137.532 116.721 138.137 117.605 138.36C117.714 138.388 117.831 138.41 117.939 138.379C118.201 138.301 118.282 137.946 118.197 137.682C118.061 137.268 117.317 136.644 117.971 136.293C118.512 136.006 119.221 136.644 119.78 136.653C119.821 136.653 119.866 136.653 119.902 136.626C119.992 136.562 119.947 136.421 119.893 136.325C119.676 135.943 119.094 135.269 119.126 134.814C119.158 134.272 119.879 134.308 120.24 134.44C121.991 135.087 123.25 136.885 125.095 137.149C125.176 137.158 125.258 137.167 125.334 137.149C125.871 136.999 125.519 136.148 125.303 135.884C124.865 135.342 124.328 134.814 123.683 134.54C123.349 134.399 122.988 134.326 122.632 134.258C122.009 134.135 121.386 134.017 120.764 133.894C120.231 133.789 119.586 133.552 119.049 133.607C118.066 133.707 117.028 133.962 116.18 134.49C115.471 134.932 114.876 135.56 114.109 135.884C113.098 136.312 111.875 136.17 110.973 136.794C110.477 137.136 110.147 137.659 109.791 138.146C109.209 138.934 108.523 139.644 107.756 140.25C107.007 140.846 106.181 141.384 105.604 142.167C105.419 142.417 104.841 143.196 105.053 143.514C105.252 143.81 106.213 143.674 106.502 143.605C106.606 143.583 106.714 143.546 106.795 143.478C106.876 143.405 106.926 143.291 106.894 143.186C106.845 143.036 106.651 142.968 106.628 142.813C106.61 142.677 106.75 142.558 106.885 142.549C107.021 142.54 107.156 142.595 107.287 142.64C107.436 142.69 107.594 142.722 107.752 142.736L107.743 142.745Z" fill="white"/>
<path opacity="0.1" d="M102.707 145.472C102.549 145.577 102.4 145.704 102.31 145.873C102.211 146.055 102.179 146.264 102.112 146.455C101.999 146.76 101.791 147.02 101.579 147.27C101.182 147.735 100.763 148.186 100.329 148.618C100.09 148.855 99.8377 149.101 99.7339 149.419C100.366 149.424 101.002 149.183 101.466 148.75C101.611 148.618 101.742 148.463 101.805 148.277C101.841 148.163 101.854 148.044 101.9 147.935C102.003 147.694 102.265 147.566 102.513 147.494C102.761 147.421 103.028 147.384 103.249 147.248C103.47 147.111 103.637 146.829 103.533 146.587C103.501 146.515 103.452 146.451 103.443 146.373C103.425 146.251 103.524 146.132 103.641 146.087C103.758 146.041 103.885 146.041 104.007 146.027C104.295 146.005 104.58 145.918 104.837 145.782C105.45 145.449 104.498 145.126 104.214 145.112C103.691 145.085 103.154 145.172 102.707 145.463V145.472Z" fill="white"/>
<path opacity="0.1" d="M127.184 135.05C127.22 135.178 127.297 135.287 127.378 135.396C127.825 136.011 128.276 136.626 128.723 137.24C128.804 137.35 128.885 137.463 129.007 137.527C129.124 137.591 129.291 137.595 129.381 137.495C129.436 137.441 129.458 137.359 129.512 137.304C129.598 137.213 129.747 137.208 129.86 137.254C129.977 137.304 130.067 137.395 130.157 137.482C130.451 137.764 130.762 138.028 131.091 138.265C131.168 138.324 131.281 138.379 131.353 138.31C131.385 138.283 131.398 138.237 131.407 138.196C131.466 137.91 131.452 137.609 131.362 137.331C131.326 137.222 131.281 137.108 131.294 136.994C131.322 136.776 131.574 136.648 131.791 136.676C132.138 136.717 132.495 137.095 132.761 137.309C133.095 137.577 133.406 137.878 133.686 138.206C134.042 138.62 134.385 139.093 134.895 139.266C135.048 139.316 135.229 139.335 135.364 139.244C135.414 139.212 135.45 139.166 135.5 139.134C135.68 139.025 135.91 139.143 136.059 139.294C136.285 139.521 136.433 139.808 136.641 140.049C136.849 140.291 137.155 140.487 137.467 140.427C137.525 140.418 137.589 140.391 137.611 140.336C137.634 140.286 137.616 140.232 137.625 140.181C137.638 140.072 137.751 139.995 137.864 139.986C137.977 139.981 138.08 140.027 138.18 140.081C138.649 140.332 139.086 140.719 139.614 140.714C139.641 140.714 139.668 140.714 139.687 140.691C139.705 140.673 139.709 140.646 139.709 140.623C139.714 140.436 139.592 140.277 139.47 140.136C138.906 139.471 138.306 138.811 137.543 138.397C136.483 137.818 135.206 137.759 134.137 137.199C133.478 136.853 132.932 136.33 132.323 135.911C131.678 135.465 131.019 135.242 130.234 135.178C129.923 135.15 129.612 135.16 129.3 135.132C128.826 135.091 128.353 134.982 127.911 134.795C127.64 134.682 127.017 134.454 127.184 135.05Z" fill="white"/>
<path opacity="0.1" d="M105.658 147.188C102.003 148.846 99.2737 150.093 98.1141 151.172C98.1593 151.218 98.2134 151.259 98.272 151.286C98.9624 151.577 99.7835 151.295 100.496 151.268C103.546 151.163 105.852 154.022 108.834 153.972C109.48 153.963 110.125 153.786 110.756 153.9C111.226 153.981 111.65 154.218 112.065 154.455C113.473 155.261 114.957 156.158 116.572 156.071C118.025 155.994 119.365 155.12 120.822 155.124C122.032 155.124 123.372 155.712 124.373 155.024C124.824 154.71 125.104 154.186 125.564 153.881C126.363 153.349 127.464 153.626 128.339 153.239C129.399 152.775 129.873 151.482 130.861 150.881C131.651 150.398 132.652 150.426 133.469 150.002C134.493 149.479 134.872 148.413 135.689 147.689C136.479 146.988 137.525 146.669 138.337 145.991C138.811 145.595 139.186 145.094 139.632 144.675C140.259 144.088 141.017 143.664 141.798 143.318C141.924 143.264 142.064 143.186 142.163 143.086C139.795 142.481 137.061 141.953 133.979 141.625C121.558 140.3 110.495 144.994 105.658 147.188Z" fill="black"/>
<path opacity="0.1" d="M116.748 151.072C116.68 151.204 116.617 151.341 116.55 151.473C116.153 152.274 115.638 152.051 115.882 151.222C116.04 150.681 116.333 150.198 116.523 149.67C116.82 148.828 117.118 147.99 117.416 147.147C117.592 146.642 117.732 145.845 117.353 145.39C116.992 144.962 116.324 144.994 115.796 145.185C114.51 145.645 113.572 146.756 112.791 147.881C112.142 148.818 111.555 149.888 110.702 150.662C110.454 150.89 109.931 151.095 109.98 150.558C110.007 150.239 110.504 149.806 110.698 149.556C111.402 148.636 111.961 147.612 112.363 146.524C112.426 146.351 112.475 146.132 112.349 146C112.286 145.932 112.191 145.909 112.101 145.891C111.384 145.772 110.684 146.155 110.08 146.565C108.785 147.448 107.616 148.527 106.633 149.752C106.515 149.897 106.069 150.489 105.843 150.143C105.676 149.888 106.308 149.278 106.452 149.087C106.795 148.627 107.012 148.076 107.052 147.503C106.524 147.384 105.694 147.794 105.189 147.962C104.498 148.195 103.817 148.463 103.154 148.768C102.991 148.846 102.775 148.982 102.59 148.978C101.891 148.96 102.806 148.245 102.969 148.09C103.506 147.575 107.567 145.668 105.383 144.866C105.04 144.739 104.688 144.643 104.331 144.575C104.291 144.343 104.584 144.206 104.819 144.179C105.351 144.124 105.888 144.202 106.425 144.252C107.093 144.311 107.77 144.32 108.442 144.284C109.209 144.238 110.003 144.115 110.639 143.674C110.883 143.505 111.117 143.223 111.027 142.941C110.955 142.713 110.716 142.595 110.495 142.508C109.922 142.289 109.34 142.13 108.78 141.884C108.546 141.784 107.616 141.616 107.594 141.27C107.562 140.773 109.191 141.301 109.461 141.379C110.179 141.588 110.883 141.834 111.618 141.962C112.209 142.066 112.814 142.085 113.409 142.035C113.955 141.989 114.474 142.035 115.011 141.884C115.363 141.784 115.706 141.62 115.959 141.352C116.148 141.151 116.283 140.901 116.347 140.628C116.374 140.514 116.387 140.395 116.374 140.277C116.351 140.049 116.229 139.854 116.058 139.713C115.512 139.257 114.97 138.802 114.425 138.342C114.267 138.21 113.27 137.545 113.721 137.258C113.91 137.136 114.605 137.618 114.758 137.723C115.092 137.946 115.395 138.215 115.701 138.47C116.717 139.307 117.845 140.031 119.085 140.45C119.694 140.655 120.353 140.782 120.976 140.623C121.598 140.459 122.158 139.94 122.208 139.294C122.239 138.852 122.036 138.433 121.838 138.037C121.463 137.29 121.084 136.535 120.552 135.883C120.367 135.656 120.006 135.401 119.943 135.096C119.839 134.572 120.294 134.891 120.502 135.073C121.057 135.556 121.544 136.12 121.946 136.735C122.632 137.782 123.119 139.034 124.166 139.708C124.657 140.022 125.23 140.181 125.812 140.232C126.282 140.273 126.778 140.241 127.184 140.004C127.92 139.58 127.789 138.879 127.527 138.178C127.207 137.309 126.787 136.475 126.277 135.697C126.241 135.642 126.205 135.588 126.214 135.524C126.228 135.428 126.336 135.374 126.431 135.392C126.525 135.41 126.598 135.474 126.665 135.537C127.911 136.735 128.235 138.738 129.639 139.749C130.433 140.323 131.448 140.477 132.422 140.564C132.725 140.591 133.095 140.578 133.244 140.313C133.343 140.136 133.302 139.917 133.235 139.722C132.928 138.825 132.215 138.133 131.75 137.309C131.714 137.249 131.682 137.177 131.705 137.113C131.75 136.981 131.94 137.008 132.061 137.072C132.648 137.381 133.041 137.96 133.401 138.52C133.771 139.093 134.137 139.676 134.606 140.168C136.289 141.943 138.87 141.825 140.887 142.986C139.637 142.772 138.383 142.526 137.209 143.136C136.235 143.646 135.441 144.502 135.021 145.527C134.746 146.2 134.66 147.252 134.128 147.78C133.429 148.477 134.033 146.583 134.087 146.31C134.191 145.777 134.272 145.235 134.335 144.698C134.367 144.42 134.394 144.129 134.29 143.869C134.083 143.359 133.465 143.164 132.914 143.141C131.773 143.095 130.618 143.542 129.796 144.347C128.226 145.891 128.059 148.39 126.801 150.203C126.71 150.33 126.557 150.471 126.422 150.394C126.304 150.325 126.318 150.152 126.349 150.016C126.719 148.454 127.374 146.97 127.775 145.413C127.906 144.907 128.217 143.847 127.671 143.505C127.387 143.332 127.031 143.318 126.706 143.391C126.065 143.532 125.51 143.96 125.1 144.479C124.689 144.998 124.405 145.604 124.134 146.21C123.498 147.621 122.902 149.055 122.347 150.503C122.208 150.867 121.468 152.069 121.549 151.022C121.589 150.512 121.792 150.016 121.914 149.52C122.171 148.454 122.343 147.366 122.429 146.273C122.478 145.636 122.42 144.848 121.851 144.566C121.368 144.325 120.786 144.607 120.371 144.953C119.374 145.786 118.769 146.988 118.192 148.154C117.714 149.123 117.231 150.089 116.753 151.058L116.748 151.072Z" fill="black"/>
<path d="M147.469 143.851C136.285 139.808 123.394 139.435 112.187 143.619C109.006 144.807 105.861 146.292 103.136 148.345C103.104 148.368 103.064 148.486 103.145 148.459C105.866 147.421 108.514 146.228 111.293 145.34C114.19 144.416 117.159 143.651 120.164 143.173C125.925 142.253 131.719 142.089 137.498 142.963C140.769 143.455 143.986 144.261 147.1 145.381C148.187 145.773 148.417 144.197 147.474 143.856L147.469 143.851Z" fill="#E5872F"/>
<path opacity="0.3" d="M147.469 143.851C136.285 139.808 123.394 139.435 112.187 143.619C109.006 144.807 105.861 146.292 103.136 148.345C103.104 148.368 103.064 148.486 103.145 148.459C105.866 147.421 108.514 146.228 111.293 145.34C114.19 144.416 117.159 143.651 120.164 143.173C125.925 142.253 131.719 142.089 137.498 142.963C140.769 143.455 143.986 144.261 147.1 145.381C148.187 145.773 148.417 144.197 147.474 143.856L147.469 143.851Z" fill="white"/>
<path d="M146.869 127.847C147.036 127.069 147.176 126.295 147.027 125.525C146.915 124.947 146.639 124.41 146.495 123.841C146.26 122.926 146.36 121.956 146.215 121.018C146.084 120.167 145.746 119.347 145.236 118.651C144.997 118.323 144.722 118.022 144.528 117.667C144.329 117.307 144.225 116.902 144.117 116.506C143.765 115.199 143.337 113.834 142.349 112.909C141.586 112.194 140.589 111.848 139.709 111.311C138.901 110.819 138.807 109.927 138.198 109.249C136.979 107.906 134.809 108.862 133.402 107.76C132.689 107.2 132.219 106.713 131.285 106.508C130.523 106.339 129.697 106.435 128.957 106.198C128.253 105.975 127.793 105.424 127.175 105.06C126.237 104.504 125.122 104.582 124.08 104.486C123.002 104.391 122.036 103.785 120.953 103.726C120.868 103.721 120.777 103.721 120.701 103.758C120.579 103.822 120.516 103.972 120.52 104.108C120.543 104.81 121.098 105.406 121.391 106.007C122.654 108.579 121.138 111.657 122.334 114.189C122.591 114.735 122.988 115.222 123.137 115.809C123.245 116.242 123.214 116.697 123.173 117.143C123.038 118.66 122.857 120.276 123.552 121.628C124.179 122.844 125.429 123.65 125.989 124.897C126.453 125.935 126.476 127.31 127.441 127.898C127.879 128.166 128.429 128.203 128.863 128.476C129.621 128.954 129.81 130.001 130.473 130.607C131.272 131.335 132.54 131.244 133.429 131.859C134.137 132.346 134.502 133.215 135.175 133.753C136.009 134.427 137.052 134.34 137.977 134.759C138.87 135.164 139.542 135.938 140.422 136.371C140.936 136.621 141.5 136.749 142.028 136.972C142.764 137.281 143.413 137.768 144.004 138.306C144.185 138.47 144.438 138.647 144.645 138.515C144.717 138.47 144.767 138.392 144.808 138.315C145.322 137.441 145.899 136.498 146.139 135.506C146.373 134.531 146.897 133.602 146.887 132.573C146.883 131.786 146.59 131.025 146.54 130.238C146.49 129.432 146.689 128.635 146.865 127.838L146.869 127.847Z" fill="#E5872F"/>
<path opacity="0.1" d="M131.358 108.934C131.389 109.021 131.425 109.103 131.466 109.185C131.493 109.235 131.525 109.29 131.583 109.303C131.651 109.321 131.719 109.271 131.75 109.212C131.782 109.148 131.782 109.076 131.786 109.007C131.8 108.698 131.872 108.188 132.197 108.088C132.481 108.001 132.86 108.201 133.041 108.406C133.343 108.757 133.429 109.244 133.514 109.704C133.632 110.3 133.776 110.897 133.952 111.48C134.015 111.684 134.15 111.935 134.363 111.894C134.548 111.857 134.606 111.625 134.656 111.439C134.705 111.252 134.881 111.042 135.048 111.138C135.116 111.175 135.148 111.252 135.175 111.325C135.382 111.848 135.554 112.39 135.684 112.937C135.725 113.105 135.761 113.278 135.865 113.419C135.969 113.56 136.149 113.656 136.312 113.597C136.397 113.569 136.461 113.501 136.519 113.433C136.835 113.055 136.916 112.536 137.056 112.062C137.196 111.589 137.449 111.083 137.918 110.929C138.694 111.279 138.969 112.263 138.947 113.119C138.924 113.975 138.694 114.84 138.847 115.682C138.865 115.787 138.892 115.891 138.96 115.973C139.127 116.169 139.456 116.101 139.646 115.928C139.939 115.65 140.178 114.776 140.724 115.199C141.175 115.55 140.914 116.406 141.121 116.888C141.135 116.925 141.157 116.961 141.189 116.984C141.275 117.039 141.378 116.943 141.442 116.861C141.681 116.529 142.019 115.773 142.416 115.618C142.885 115.436 143.129 116.069 143.161 116.429C143.296 118.177 142.263 119.948 142.759 121.633C142.782 121.706 142.804 121.778 142.854 121.838C143.188 122.238 143.765 121.61 143.905 121.323C144.189 120.74 144.429 120.076 144.41 119.42C144.401 119.078 144.32 118.742 144.244 118.409C144.104 117.831 143.968 117.253 143.828 116.67C143.711 116.174 143.661 115.532 143.409 115.09C142.944 114.284 142.33 113.497 141.554 112.973C140.909 112.536 140.151 112.267 139.583 111.735C138.834 111.033 138.477 109.936 137.607 109.399C137.128 109.107 136.56 109.026 136.014 108.907C135.125 108.711 134.263 108.397 133.46 107.978C132.671 107.564 131.899 107.068 131.019 106.877C130.739 106.813 129.86 106.622 129.675 106.927C129.503 107.209 129.991 107.978 130.157 108.201C130.216 108.283 130.288 108.361 130.379 108.402C130.469 108.443 130.586 108.443 130.658 108.374C130.767 108.274 130.749 108.079 130.87 108.001C130.979 107.933 131.128 108.006 131.191 108.119C131.254 108.233 131.254 108.37 131.267 108.497C131.281 108.648 131.317 108.793 131.367 108.934H131.358Z" fill="white"/>
<path opacity="0.1" d="M127.121 105.67C126.972 105.574 126.81 105.497 126.634 105.483C126.444 105.465 126.255 105.524 126.065 105.538C125.763 105.561 125.465 105.483 125.176 105.397C124.631 105.238 124.094 105.051 123.561 104.846C123.272 104.732 122.966 104.609 122.659 104.646C122.898 105.192 123.345 105.638 123.891 105.875C124.057 105.948 124.238 106.002 124.418 105.984C124.527 105.975 124.63 105.934 124.743 105.934C124.987 105.934 125.194 106.103 125.348 106.289C125.506 106.476 125.637 106.69 125.835 106.827C126.034 106.963 126.336 106.995 126.498 106.817C126.548 106.763 126.58 106.695 126.643 106.658C126.742 106.594 126.877 106.635 126.959 106.717C127.04 106.799 127.094 106.909 127.148 107.009C127.279 107.245 127.459 107.459 127.676 107.623C128.19 108.019 128.096 107.082 127.996 106.831C127.816 106.371 127.536 105.943 127.117 105.675L127.121 105.67Z" fill="white"/>
<path opacity="0.1" d="M145.326 122.607C145.232 122.684 145.168 122.798 145.11 122.903C144.767 123.522 144.419 124.146 144.077 124.765C144.013 124.874 143.95 124.993 143.941 125.12C143.932 125.248 143.991 125.389 144.113 125.43C144.18 125.453 144.257 125.444 144.325 125.466C144.433 125.507 144.496 125.63 144.501 125.744C144.501 125.862 144.465 125.976 144.424 126.086C144.298 126.445 144.198 126.814 144.126 127.187C144.108 127.278 144.104 127.392 144.189 127.429C144.225 127.447 144.266 127.438 144.307 127.429C144.568 127.369 144.817 127.242 145.02 127.06C145.101 126.987 145.173 126.905 145.277 126.873C145.471 126.814 145.674 126.978 145.737 127.174C145.836 127.488 145.66 127.939 145.579 128.248C145.48 128.64 145.349 129.022 145.182 129.386C144.974 129.851 144.704 130.324 144.758 130.834C144.776 130.984 144.83 131.148 144.956 131.226C145.002 131.253 145.056 131.271 145.101 131.299C145.263 131.408 145.25 131.654 145.182 131.84C145.078 132.118 144.893 132.359 144.771 132.633C144.65 132.906 144.6 133.243 144.771 133.489C144.803 133.534 144.848 133.58 144.902 133.575C144.952 133.575 144.992 133.539 145.038 133.525C145.137 133.493 145.245 133.561 145.295 133.657C145.344 133.748 145.344 133.857 145.335 133.962C145.304 134.458 145.15 134.982 145.358 135.433C145.367 135.455 145.38 135.478 145.403 135.487C145.426 135.496 145.448 135.487 145.471 135.478C145.629 135.41 145.714 135.241 145.787 135.087C146.129 134.349 146.45 133.58 146.504 132.765C146.581 131.636 146.138 130.52 146.197 129.386C146.233 128.69 146.463 128.021 146.581 127.333C146.707 126.609 146.639 125.958 146.391 125.261C146.292 124.984 146.166 124.72 146.071 124.442C145.922 124.018 145.832 123.572 145.818 123.122C145.809 122.844 145.764 122.225 145.322 122.598L145.326 122.607Z" fill="white"/>
<path opacity="0.1" d="M126.814 108.862C124.008 106.371 121.91 104.514 120.556 103.94C120.534 103.999 120.52 104.058 120.525 104.122C120.547 104.823 121.102 105.42 121.395 106.021C122.659 108.593 121.143 111.671 122.338 114.202C122.596 114.749 122.993 115.236 123.142 115.823C123.25 116.256 123.218 116.711 123.178 117.157C123.042 118.673 122.862 120.29 123.557 121.642C124.184 122.857 125.434 123.663 125.993 124.911C126.458 125.949 126.48 127.324 127.446 127.911C127.884 128.18 128.434 128.216 128.867 128.489C129.625 128.968 129.815 130.015 130.478 130.62C131.276 131.349 132.544 131.258 133.433 131.872C134.141 132.359 134.507 133.229 135.179 133.766C136.014 134.44 137.056 134.354 137.981 134.773C138.874 135.178 139.547 135.952 140.427 136.384C140.941 136.635 141.505 136.762 142.033 136.985C142.768 137.295 143.418 137.782 144.009 138.319C144.104 138.406 144.226 138.497 144.347 138.542C143.941 136.28 143.332 133.734 142.421 130.971C138.744 119.825 130.527 112.163 126.819 108.871L126.814 108.862Z" fill="black"/>
<path opacity="0.1" d="M127.829 119.853C127.69 119.848 127.554 119.843 127.414 119.839C126.589 119.807 126.575 119.283 127.365 119.17C127.879 119.097 128.402 119.16 128.917 119.115C129.738 119.047 130.559 118.974 131.38 118.906C131.872 118.865 132.598 118.673 132.833 118.173C133.054 117.699 132.765 117.139 132.404 116.761C131.52 115.841 130.225 115.463 128.98 115.227C127.942 115.031 126.814 114.94 125.835 114.512C125.551 114.389 125.172 114.02 125.641 113.852C125.921 113.752 126.476 114.011 126.76 114.079C127.802 114.325 128.885 114.412 129.954 114.334C130.126 114.321 130.329 114.28 130.392 114.12C130.424 114.038 130.41 113.947 130.388 113.865C130.212 113.205 129.621 112.754 129.039 112.395C127.798 111.625 126.44 111.043 125.028 110.674C124.856 110.628 124.193 110.473 124.391 110.146C124.54 109.904 125.298 110.209 125.515 110.259C126.034 110.378 126.58 110.351 127.08 110.159C126.977 109.658 126.313 109.108 125.975 108.739C125.515 108.238 125.028 107.76 124.513 107.309C124.387 107.2 124.184 107.068 124.116 106.908C123.859 106.303 124.815 106.813 125.009 106.89C125.646 107.15 128.817 109.891 128.646 107.714C128.619 107.373 128.565 107.031 128.488 106.699C128.669 106.572 128.894 106.772 129.007 106.963C129.26 107.4 129.399 107.887 129.566 108.365C129.774 108.962 130.027 109.545 130.32 110.105C130.654 110.742 131.064 111.379 131.678 111.748C131.913 111.889 132.242 111.98 132.445 111.798C132.607 111.653 132.616 111.398 132.603 111.175C132.567 110.596 132.477 110.041 132.463 109.467C132.463 109.226 132.237 108.365 132.522 108.215C132.928 107.997 133.113 109.595 133.149 109.854C133.248 110.546 133.316 111.247 133.492 111.926C133.632 112.472 133.848 112.996 134.123 113.488C134.372 113.938 134.534 114.398 134.868 114.803C135.084 115.067 135.36 115.295 135.68 115.409C135.924 115.495 136.185 115.514 136.438 115.463C136.546 115.441 136.65 115.409 136.745 115.354C136.925 115.245 137.047 115.067 137.101 114.867C137.277 114.225 137.449 113.583 137.625 112.941C137.674 112.754 137.846 111.648 138.265 111.917C138.441 112.031 138.301 112.809 138.274 112.982C138.216 113.351 138.107 113.715 138.013 114.079C137.701 115.272 137.525 116.515 137.656 117.74C137.719 118.341 137.864 118.956 138.243 119.425C138.617 119.894 139.271 120.176 139.835 119.966C140.219 119.825 140.494 119.488 140.751 119.165C141.234 118.555 141.726 117.94 142.064 117.235C142.182 116.989 142.258 116.579 142.493 116.411C142.895 116.119 142.8 116.634 142.728 116.884C142.534 117.544 142.249 118.177 141.888 118.76C141.275 119.748 140.408 120.649 140.246 121.806C140.169 122.348 140.26 122.903 140.44 123.418C140.584 123.836 140.806 124.246 141.157 124.506C141.798 124.97 142.335 124.588 142.827 124.096C143.436 123.486 143.973 122.803 144.429 122.07C144.46 122.02 144.496 121.965 144.55 121.947C144.632 121.92 144.722 121.992 144.744 122.079C144.767 122.165 144.744 122.257 144.713 122.338C144.185 123.868 142.628 124.92 142.317 126.509C142.141 127.41 142.403 128.339 142.705 129.209C142.8 129.477 142.953 129.792 143.233 129.819C143.418 129.837 143.589 129.714 143.725 129.587C144.361 128.977 144.668 128.098 145.182 127.383C145.218 127.333 145.268 127.274 145.331 127.269C145.457 127.256 145.511 127.429 145.502 127.561C145.466 128.184 145.132 128.74 144.803 129.268C144.465 129.805 144.113 130.343 143.878 130.934C143.034 133.061 144.131 135.223 143.932 137.395C143.63 136.243 143.355 135.073 142.389 134.308C141.586 133.671 140.557 133.32 139.533 133.357C138.861 133.379 137.945 133.712 137.291 133.461C136.434 133.134 138.261 132.92 138.509 132.856C138.996 132.737 139.484 132.601 139.962 132.446C140.205 132.364 140.463 132.278 140.639 132.086C140.99 131.713 140.914 131.107 140.72 130.629C140.318 129.632 139.497 128.817 138.504 128.426C136.6 127.679 134.435 128.499 132.427 128.116C132.283 128.089 132.107 128.011 132.12 127.866C132.134 127.738 132.283 127.684 132.409 127.656C133.866 127.374 135.364 127.36 136.831 127.105C137.304 127.023 138.319 126.882 138.396 126.281C138.432 125.972 138.306 125.662 138.121 125.412C137.755 124.915 137.182 124.61 136.587 124.46C135.991 124.31 135.373 124.301 134.76 124.301C133.325 124.301 131.89 124.342 130.46 124.428C130.099 124.451 128.804 124.283 129.715 123.946C130.162 123.782 130.658 123.768 131.119 123.677C132.111 123.486 133.095 123.213 134.042 122.867C134.597 122.662 135.233 122.311 135.251 121.715C135.265 121.205 134.805 120.818 134.354 120.599C133.271 120.067 132.025 120.012 130.821 119.966C129.824 119.93 128.822 119.894 127.825 119.853H127.829Z" fill="black"/>
<path d="M145.751 143.369C144.835 132.232 140.178 121.054 132.337 113.069C130.108 110.801 127.649 108.684 124.87 107.141C124.838 107.122 124.721 107.136 124.779 107.191C126.701 109.121 128.727 110.924 130.546 112.964C132.441 115.09 134.227 117.335 135.788 119.72C138.784 124.296 141.157 129.195 142.651 134.481C143.499 137.472 144.059 140.537 144.32 143.637C144.411 144.721 145.827 144.311 145.751 143.369Z" fill="#E5872F"/>
<path opacity="0.3" d="M145.751 143.369C144.835 132.232 140.178 121.054 132.337 113.069C130.108 110.801 127.649 108.684 124.87 107.141C124.838 107.122 124.721 107.136 124.779 107.191C126.701 109.121 128.727 110.924 130.546 112.964C132.441 115.09 134.227 117.335 135.788 119.72C138.784 124.296 141.157 129.195 142.651 134.481C143.499 137.472 144.059 140.537 144.32 143.637C144.411 144.721 145.827 144.311 145.751 143.369Z" fill="white"/>
<path d="M129.711 131.676C129.778 131.617 129.963 131.558 130.072 131.613C130.221 131.686 130.302 131.9 130.415 132.086C130.415 132.086 130.622 131.595 130.825 131.162C130.884 131.039 130.997 130.975 131.042 130.957C131.227 130.889 131.367 130.839 131.75 130.793C135.409 130.32 141.049 133.47 144.347 137.837C146.558 140.76 147.154 143.482 146.211 145.108C144.613 147.99 138.13 151.072 131.7 145.745C125.271 140.418 127.477 133.561 129.711 131.681V131.676Z" fill="#451F07"/>
<path d="M144.64 143.05C145.11 143.614 145.547 144.229 145.904 144.875C146.815 143.309 146.242 140.682 144.113 137.864C140.932 133.652 135.495 130.616 131.971 131.071C131.696 131.107 131.439 131.162 131.204 131.239C132.21 133.357 134.02 135.014 135.964 136.398C138.933 138.51 142.272 140.181 144.64 143.045V143.05Z" fill="#632C0E"/>
<path d="M131.34 139.521C134.516 143.728 139.953 146.769 143.481 146.31C144.045 146.237 144.523 146.077 144.92 145.845C144.907 145.818 144.893 145.795 144.88 145.768C144.519 145.103 144.09 144.484 143.607 143.906C142.506 142.585 141.153 141.515 139.75 140.536C136.718 138.433 133.415 136.676 131.159 133.652C130.758 133.12 130.383 132.51 130.076 131.854C128.488 133.256 128.872 136.261 131.34 139.517V139.521Z" fill="#632C0E"/>
<path d="M130.419 132.086C130.419 132.086 130.514 131.859 130.64 131.576C131.326 132.692 133.492 135.747 138.103 138.547C143.864 142.048 145.047 144.393 145.412 144.962C145.777 145.531 145.132 145.64 145.132 145.64C143.873 143.541 142.691 141.911 137.904 138.961C133.122 136.006 131.867 134.354 130.419 132.091V132.086Z" fill="#381809"/>
<path d="M150.068 145.062C150.032 144.98 149.883 144.857 149.757 144.862C149.595 144.871 149.437 145.039 149.261 145.167C149.261 145.167 149.261 144.63 149.238 144.152C149.234 144.015 149.152 143.915 149.116 143.878C148.972 143.742 148.859 143.646 148.53 143.45C145.335 141.588 138.928 142.308 134.214 145.053C131.06 146.892 129.467 149.169 129.72 151.036C130.094 154.314 134.899 159.686 142.867 157.269C150.835 154.851 151.417 147.666 150.073 145.062H150.068Z" fill="#451F07"/>
<path d="M131.953 149.756C131.303 150.098 130.667 150.489 130.09 150.949C129.846 149.146 131.38 146.947 134.421 145.176C138.965 142.526 145.141 141.839 148.218 143.633C148.458 143.774 148.674 143.924 148.864 144.088C147.127 145.65 144.825 146.478 142.502 146.997C138.956 147.789 135.238 148.04 131.953 149.756Z" fill="#632C0E"/>
<path d="M145.57 151.673C141.031 154.323 134.854 155.01 131.773 153.217C131.281 152.93 130.902 152.597 130.622 152.229C130.645 152.21 130.667 152.192 130.69 152.174C131.276 151.7 131.908 151.3 132.576 150.949C134.096 150.157 135.752 149.697 137.422 149.342C141.022 148.582 144.744 148.245 147.975 146.328C148.548 145.991 149.13 145.577 149.658 145.089C150.587 147.002 149.085 149.624 145.565 151.673H145.57Z" fill="#632C0E"/>
<path d="M149.261 145.167C149.261 145.167 149.261 144.917 149.252 144.607C148.196 145.367 145.029 147.343 139.705 148.135C133.05 149.128 131.064 150.831 130.509 151.213C129.954 151.596 130.509 151.951 130.509 151.951C132.472 150.503 134.187 149.46 139.727 148.595C145.268 147.73 147.059 146.688 149.256 145.167H149.261Z" fill="#381809"/>
<path d="M147.713 140.746C147.519 139.63 147.713 138.469 148.11 137.409C148.507 136.348 149.098 135.373 149.712 134.422C150.533 133.147 151.408 131.9 152.324 130.693C152.446 130.534 152.712 130.019 152.938 130.006C153.628 129.96 153.47 132.35 153.461 132.728C153.425 134.299 153.236 135.792 152.83 137.322C152.415 138.884 151.823 140.409 150.461 141.333C149.978 141.661 149.455 142.094 148.846 142.103C148.052 142.116 147.835 141.433 147.718 140.746H147.713Z" fill="#FAFAFA"/>
<path d="M149.125 140.341C149.017 139.421 148.909 138.488 149.062 137.577C149.274 136.334 149.951 135.232 150.47 134.085C150.723 133.525 150.93 132.951 151.111 132.364C150.632 133.042 150.163 133.73 149.712 134.426C149.098 135.378 148.507 136.352 148.11 137.413C147.713 138.474 147.515 139.63 147.713 140.75C147.835 141.438 148.047 142.125 148.841 142.107C149.45 142.094 149.974 141.661 150.456 141.338C151.823 140.414 152.41 138.888 152.825 137.327C152.992 136.694 153.118 136.065 153.218 135.433C152.554 136.521 151.729 137.504 150.763 138.328C150.091 138.902 149.306 139.476 149.13 140.345L149.125 140.341Z" fill="#E6E6E6"/>
<path d="M148.088 138.16C147.803 137.331 147.312 136.621 146.68 135.943C145.62 134.809 144.456 133.771 143.215 132.842C142.597 132.378 141.956 131.941 141.297 131.531C140.95 131.312 139.353 129.951 139.123 130.839C139.086 130.975 139.113 131.121 139.15 131.258C139.524 132.865 140.408 134.299 141.324 135.669C142.461 137.368 143.693 139.034 145.286 140.309C146.048 140.919 146.883 141.429 147.713 141.939C147.83 142.012 147.979 142.08 148.092 142.012C148.169 141.966 148.2 141.871 148.227 141.784C148.421 141.101 148.403 140.145 148.349 139.439C148.313 138.984 148.223 138.561 148.088 138.164V138.16Z" fill="#FAFAFA"/>
<path d="M147.713 141.939C147.817 142.003 147.943 142.062 148.052 142.025C147.591 141.575 147.262 140.992 146.96 140.414C146.062 138.684 145.209 136.871 143.81 135.519C142.615 134.358 141.054 133.575 140.079 132.214C139.736 131.731 139.483 131.112 139.596 130.552C139.366 130.516 139.186 130.584 139.123 130.839C139.086 130.975 139.113 131.121 139.15 131.258C139.524 132.865 140.408 134.299 141.324 135.669C142.461 137.368 143.693 139.034 145.286 140.309C146.048 140.919 146.883 141.429 147.713 141.939Z" fill="#EBEBEB"/>
<path d="M152.685 139.457C154.224 139.334 155.789 139.863 157.012 140.814C158.501 141.975 159.453 143.678 160.635 145.153C160.279 145.262 159.895 145.153 159.548 145.017C157.955 144.402 156.489 143.346 154.788 143.195C154.201 143.145 153.61 143.204 153.019 143.204C152.333 143.204 151.647 143.123 150.98 142.963C150.42 142.827 148.891 142.421 148.927 141.652C148.963 140.923 149.974 140.386 150.51 140.099C151.178 139.74 151.923 139.521 152.676 139.462L152.685 139.457Z" fill="#F5F5F5"/>
<path d="M153.024 143.2C153.615 143.2 154.201 143.141 154.792 143.191C156.493 143.341 157.96 144.397 159.552 145.012C159.9 145.149 160.283 145.262 160.64 145.149C160.59 145.089 160.545 145.026 160.495 144.962C160.17 144.857 159.85 144.734 159.548 144.575C158.068 143.805 156.931 142.412 155.356 141.857C153.777 141.301 152.044 141.684 150.393 141.957C149.946 142.03 149.464 142.084 149.035 141.975C149.364 142.531 150.519 142.84 150.989 142.954C151.656 143.113 152.342 143.195 153.028 143.195L153.024 143.2Z" fill="#E6E6E6"/>
<path d="M149.076 140.063C149.965 139.298 151.052 138.843 152.108 138.369C153.181 137.882 154.368 137.477 155.352 136.817C155.663 136.607 155.965 136.371 156.304 136.216C156.367 136.188 156.453 136.166 156.493 136.22C156.782 136.598 153.321 139.171 152.951 139.435C152.32 139.881 151.666 140.3 150.993 140.682C150.47 140.978 149.653 141.611 149.026 141.556C148.074 141.47 148.661 140.427 149.076 140.068V140.063Z" fill="#E0E0E0"/>
<path d="M145.926 140.473C145.34 140.359 144.753 140.259 144.158 140.231C141.681 140.118 139.33 141.238 137.101 142.335C136.957 142.408 136.799 142.49 136.736 142.635C136.609 142.922 136.894 143.214 137.151 143.387C139.411 144.871 142.294 145.167 144.898 144.63C145.944 144.411 146.969 144.01 147.839 143.377C148.417 142.954 149.446 141.688 148.489 141.06C148.345 140.964 148.164 140.946 147.993 140.923C147.284 140.837 146.621 140.605 145.931 140.473H145.926Z" fill="#F5F5F5"/>
<path d="M148.877 141.793C148.706 141.971 148.521 142.135 148.309 142.262C147.542 142.74 146.603 142.827 145.701 142.804C144.803 142.781 143.896 142.663 143.007 142.781C142.163 142.89 141.36 143.209 140.517 143.337C139.24 143.532 137.954 143.282 136.718 142.881C136.772 143.082 136.966 143.264 137.151 143.387C139.411 144.871 142.294 145.167 144.898 144.63C145.944 144.411 146.969 144.01 147.839 143.378C148.236 143.086 148.846 142.403 148.877 141.793Z" fill="#E6E6E6"/>
<path d="M148.178 144.384C148.412 145.563 149.017 146.642 149.757 147.666C150.438 148.613 151.223 149.501 151.706 150.576C152.017 151.268 152.094 152.019 152.36 152.72C152.721 153.681 153.267 152.725 153.488 152.215C154.075 150.849 154.287 149.324 154.088 147.853C153.723 145.121 151.819 142.226 149.053 141.52C148.516 141.383 148.236 141.884 148.155 142.349C148.029 143.063 148.047 143.737 148.178 144.384Z" fill="#FAFAFA"/>
<path d="M152.545 153.043C152.049 151.627 152.478 149.984 151.936 148.572C151.521 147.489 150.592 146.71 149.919 145.768C149.558 145.262 149.265 144.707 149.058 144.124C148.755 143.286 148.67 142.253 149.243 141.579C149.179 141.561 149.121 141.538 149.058 141.52C148.521 141.383 148.241 141.884 148.16 142.349C148.033 143.063 148.051 143.737 148.182 144.384C148.417 145.563 149.021 146.642 149.761 147.666C150.443 148.613 151.228 149.501 151.715 150.576C152.026 151.268 152.103 152.019 152.369 152.72C152.428 152.875 152.491 152.975 152.554 153.039L152.545 153.043Z" fill="#EBEBEB"/>
</g>
<defs>
<clipPath id="clip0_606_248">
<rect width="245" height="207" fill="white"/>
</clipPath>
</defs>
</svg>
