<svg width="230" height="207" viewBox="0 0 230 207" fill="none" xmlns="http://www.w3.org/2000/svg">
<path d="M229.99 138.086C230.497 157.267 211.508 175.802 190.362 188.365C182.958 192.778 175.315 196.436 168.124 199.153C144.981 207.895 125.513 207.224 111.131 206.767C110.918 206.74 110.731 206.74 110.518 206.74C110.065 206.712 109.586 206.712 109.133 206.685C85.3227 205.691 61.2207 200.498 40.0224 189.28C39.4636 188.984 38.9035 188.689 38.3447 188.365C20.0756 178.493 1.83187 164.396 0.127425 141.932C-0.724797 130.875 2.7377 119.63 9.3156 110.781C16.4269 101.23 26.813 95.8771 36.1874 88.9633C42.7921 84.0946 45.7213 77.0454 48.8113 69.7282C50.9686 64.6444 53.3122 59.6133 56.0015 54.7703C57.4929 52.1336 59.0379 49.5781 60.7423 47.0769C72.6466 29.5635 92.355 16.732 113.234 13.7191C134.993 10.5992 155.766 20.8481 170.014 37.3396C178.617 47.2664 184.529 59.5334 187.086 72.4732C189.189 83.0457 187.032 96.2805 195.182 104.567C204.637 114.172 218.218 111.32 225.915 123.29C229.75 129.235 229.911 135.449 229.99 138.086Z" fill="#DFEAF7"/>
<path d="M153.373 99.7211C172.702 82.9945 178.448 52.4516 165.227 32.7975C157.605 21.4668 145.859 16.9916 140.089 15.2713C137.691 11.7438 131.611 3.89929 121.315 1.04168C103.36 -3.94096 87.7778 10.4597 85.5753 12.4949C64.9442 31.5618 57.1797 78.1287 85.3468 100.878C103.647 115.658 133.475 116.942 153.373 99.7211Z" fill="#451F07"/>
<path d="M128.601 71.9602H106.443V99.5614H128.601V71.9602Z" fill="#FFB3AE"/>
<path d="M128.601 71.9602V85.2491C116.91 86.11 110.225 84.5764 106.443 82.2362V71.9602H128.601Z" fill="#FF7A72"/>
<path d="M150.488 55.3845C148.376 61.0669 143.236 64.3735 139.008 62.7687C134.781 61.1653 133.067 55.2591 135.18 49.5766C137.293 43.8942 142.433 40.5876 146.66 42.1925C150.887 43.7959 152.6 49.7021 150.488 55.3845Z" fill="#FFB3AE"/>
<path d="M88.115 55.3846C90.2272 61.0671 95.3673 64.3736 99.5946 62.7688C103.822 61.1654 105.536 55.2592 103.422 49.5768C101.31 43.8943 96.1702 40.5878 91.9429 42.1926C87.7157 43.796 86.0028 49.7022 88.115 55.3846Z" fill="#FFB3AE"/>
<path d="M139.918 50.1212C143.483 60.0238 132.234 79.7947 117.844 79.7947C105.652 79.7947 95.7694 66.51 95.7694 50.1212C95.7694 32.2686 113.504 18.2713 117.844 20.4477C119.589 21.3228 118.156 24.2901 119.726 29.3839C123.474 41.5341 136.881 41.6823 139.918 50.1212Z" fill="#FFB3AE"/>
<path d="M179.722 177.147H53.2853V152.27C53.2853 117.002 81.5892 88.4119 116.503 88.4119C151.418 88.4119 179.722 117.002 179.722 152.27V177.147Z" fill="#E5872F"/>
<path d="M198.562 137.452H163.747V177.49H198.562V137.452Z" fill="#F3B573"/>
<path d="M209.647 157.608C209.647 161.094 206.832 163.917 203.381 163.917C201.434 163.917 199.698 163.022 198.561 161.62V170.11C200.045 170.714 201.685 171.025 203.381 171.025C210.726 171.025 216.683 165.027 216.683 157.608C216.683 150.188 210.726 144.17 203.381 144.17C201.685 144.17 200.045 144.483 198.561 145.085V153.576C199.698 152.173 201.434 151.278 203.381 151.278C206.834 151.278 209.647 154.101 209.647 157.608Z" fill="#F3B573"/>
<path d="M223.951 177.49H11.7352V188.364H223.951V177.49Z" fill="#D18C7E"/>
<path d="M48.1591 152.823C47.4297 133.829 47.6921 109.878 53.9258 108.524C54.1402 108.477 54.8852 108.327 55.6344 108.716C60.68 111.343 54.8542 132.728 48.1591 152.823Z" fill="#40C1B0"/>
<path d="M48.1593 152.823C38.964 136.54 34.5308 133.581 32.2225 134.305C31.3505 134.579 30.7254 135.397 30.494 136.158C28.8997 141.415 44.0788 150.461 48.1593 152.823Z" fill="#40C1B0"/>
<path d="M48.1592 152.823C48.1592 152.823 56.7379 127.883 62.6681 129.365C68.5984 130.847 48.1592 152.823 48.1592 152.823Z" fill="#40C1B0"/>
<path d="M34.6972 177.147H58.1727L60.2511 148.115H32.6188L34.6972 177.147Z" fill="#FF828A"/>
<path d="M164.777 172.109C164.777 175.068 162.38 177.49 159.451 177.49H73.5582C70.629 177.49 68.2318 175.068 68.2318 172.109V117.972C68.2318 115.013 70.629 112.591 73.5582 112.591H159.451C162.38 112.591 164.777 115.013 164.777 117.972V172.109Z" fill="white"/>
<path d="M116.504 154.577C120.62 154.577 123.956 151.207 123.956 147.049C123.956 142.892 120.62 139.521 116.504 139.521C112.388 139.521 109.051 142.892 109.051 147.049C109.051 151.207 112.388 154.577 116.504 154.577Z" fill="#DFEAF7"/>
</svg>
